<svg width="3612" height="2392" viewBox="0 0 3612 2392" fill="none" xmlns="http://www.w3.org/2000/svg">
<path d="M2398.54 2341.14L2318.56 2347.93L2311.01 302.868L1879.07 207.428L1886.56 2384.62L1806.58 2391.41L1798.72 107.738L2390.77 238.559L2390.89 270.568L2398.54 2341.14Z" fill="#D04713"/>
<path d="M1777.9 102.061V2388.97L1697.9 2382.18V213.1L1442.11 298.48L1449.63 2361.1L1369.62 2354.3L1361.9 240.91L1777.9 102.061Z" fill="#D04713"/>
<path d="M1347.9 904.68V2352.46L1287.9 2347.36V986.49L989.855 1080.36L994.525 2322.45L934.505 2317.35L929.695 1036.41L1347.9 904.68Z" fill="#D04713"/>
<path d="M3094.98 1361.63L3090.53 2282.37L3050.52 2285.77L3054.83 1392.99L2736.79 1315.2V2312.41L2696.79 2315.81V1264.24L3094.98 1361.63Z" fill="#D04713"/>
<path d="M172.359 2252.63L170.359 1494.53L353.229 1418.63V2267.99L333.229 2266.29V1448.59L190.389 1507.87L192.359 2254.33L172.359 2252.63Z" fill="#D04713"/>
<path d="M1.49005 2238.12L0 1887.14L157.48 1843.06V2251.37L141.48 2250.01V1864.16L16.06 1899.26L17.5 2239.48L1.49005 2238.12Z" fill="#D04713"/>
<path d="M3611.11 1900.26L3608.58 2238.38L3592.56 2239.74L3595.01 1913.92L3359.9 1876.86V2259.5L3343.9 2260.86V1858.14L3611.11 1900.26Z" fill="#D04713"/>
<path d="M909.21 2315.2V488.898L695.25 579.519L697.6 2297.23L737.6 2300.63L735.29 605.999L869.21 549.278V2311.81L909.21 2315.2Z" fill="#D04713"/>
<path d="M3319.91 618.458L3317.67 2263.09L3287.66 2265.63L3289.89 638.318L3145.96 577.358V2277.67L3115.96 2280.22V532.078L3319.91 618.458Z" fill="#D04713"/>
<path d="M2665.71 327.229L2663.36 2318.65L2603.36 2323.75L2605.69 337.129L2543.17 153.479L2491.76 253.949V2333.22L2431.76 2338.32V239.489L2554.3 0L2665.71 327.229Z" fill="#D04713"/>
<path d="M372.395 2269.62L370.195 1125.41L550.235 815.6L672.895 1041.65V2295.14L642.895 2292.59V1049.26L549.335 876.85L400.205 1133.46L402.405 2272.17L372.395 2269.62Z" fill="#D04713"/>
</svg>
