<svg width="770" height="462" viewBox="0 0 770 462" fill="none" xmlns="http://www.w3.org/2000/svg">
<path d="M368.848 215C369.957 216.017 371.05 217.053 372.129 218.102C376.373 221.918 380.508 222.019 386.035 222.25C387.908 222.379 389.78 222.51 391.652 222.645C392.548 222.702 393.443 222.76 394.366 222.819C402.298 223.398 409.533 224.905 416.848 228C416.848 228.66 416.848 229.32 416.848 230C415.631 230.268 414.414 230.536 413.16 230.813C408.106 232.083 404.803 233.568 401.848 238C400.324 249.82 402.74 258.11 409.863 267.719C422.131 282.37 441.322 289.537 459.992 291.297C474.772 292.305 487.719 292.239 499.848 283C502.462 280.531 504.283 278.228 505.848 275C506.374 273.916 506.9 272.832 507.441 271.715C510.855 262.698 509.997 253.678 506.175 245.006C503.584 239.582 501.26 235.174 496.848 231C496.848 230.34 496.848 229.68 496.848 229C497.838 229.33 498.828 229.66 499.848 230C499.848 230.66 499.848 231.32 499.848 232C500.438 232.269 501.028 232.537 501.636 232.814C515.303 240.145 524.953 256.152 529.348 270.438C530.62 275.082 530.994 279.186 530.848 284C518.912 289.873 507.323 293.791 494.284 296.441C491.689 297 491.689 297 488.594 298.044C484.364 299.124 480.605 299.306 476.266 299.301C475.453 299.305 474.639 299.31 473.802 299.314C472.083 299.32 470.364 299.32 468.646 299.316C466.08 299.313 463.516 299.336 460.951 299.362C443.879 299.431 428.068 296.338 411.66 291.875C409.643 291.332 407.625 290.791 405.605 290.255C403.803 289.775 402.003 289.288 400.202 288.8C382.291 284.528 366.887 288.834 349.848 294C347.827 294.605 345.806 295.209 343.785 295.813C342.473 296.208 341.16 296.604 339.848 297C340.176 296.513 340.505 296.026 340.844 295.524C342.522 293.022 344.185 290.512 345.848 288C346.559 286.937 347.271 285.873 348.004 284.778C361.089 265.027 369.052 244.539 371.848 221C352.591 227.76 333.396 236.221 318.52 250.567C316.848 252 316.848 252 314.848 252C314.476 252.805 314.476 252.805 314.098 253.625C312.848 256 312.848 256 310.848 258.813C306.527 265.699 305.961 273.04 306.848 281C310.522 288.772 316.709 292.27 324.434 295.153C327.229 296.134 330.023 297.108 332.848 298C326.812 312.34 307.56 322.535 293.957 328.395C289.189 330.323 284.322 331.917 279.41 333.438C278.582 333.697 277.753 333.957 276.9 334.224C271.706 335.745 267.257 336.255 261.848 336C261.833 335.366 261.818 334.732 261.803 334.079C261.199 310.547 257.775 295.533 241.195 278.395C234.573 271.541 230.787 265.09 227.848 256C225.868 263.971 224.598 271.708 223.91 279.875C223.34 286.432 222.45 292.737 220.848 299.125C220.681 299.794 220.515 300.463 220.344 301.152C219.555 304.102 219.044 305.804 216.848 308C216.988 307.423 217.128 306.846 217.272 306.251C218.567 300.195 219.039 294.345 219.121 288.176C219.132 287.38 219.143 286.585 219.155 285.765C219.194 282.456 219.221 279.148 219.229 275.838C219.312 254.847 223.423 236.425 238.848 221C240.701 220.928 242.556 220.916 244.41 220.938C245.422 220.947 246.434 220.956 247.477 220.965C248.65 220.982 248.65 220.982 249.848 221C249.717 221.603 249.587 222.207 249.453 222.828C249.029 225.284 248.749 227.508 248.848 230C251.828 233.507 254.431 234.319 258.848 235C272.26 236.049 284.582 234.303 295.332 225.473C297.019 223.916 297.019 223.916 298.723 221.438C302.085 217.58 306.173 215.935 310.848 214C311.765 213.603 312.683 213.206 313.629 212.797C329.876 206.971 353.341 206.859 368.848 215Z" fill="#0566F5"/>
<path d="M145.848 159C147.821 159.494 149.795 159.987 151.773 160.464C167.732 164.588 186.419 172.957 197.848 185C192.202 183.338 187.11 180.773 181.848 178.187C173.659 174.216 165.519 170.769 156.848 168C156.518 168.33 156.188 168.66 155.848 169C156.583 169.119 157.319 169.238 158.077 169.361C160.819 169.993 162.746 170.845 165.184 172.223C165.994 172.675 166.805 173.128 167.64 173.594C168.492 174.079 169.345 174.563 170.223 175.062C172.006 176.061 173.79 177.058 175.574 178.055C176.459 178.551 177.344 179.046 178.255 179.557C182.012 181.647 185.8 183.674 189.598 185.687C190.235 186.026 190.872 186.364 191.529 186.713C192.968 187.476 194.408 188.238 195.848 189C191.99 190.286 189.036 189.455 185.16 188.687C183.61 188.401 182.059 188.117 180.508 187.836C179.724 187.694 178.941 187.552 178.133 187.405C154.655 183.242 132.02 184.444 108.91 189.875C107.347 190.242 107.347 190.242 105.751 190.616C99.1971 192.227 93.0393 194.313 86.8478 197C87.8288 196.734 88.8098 196.469 89.8205 196.195C91.1837 195.838 92.547 195.481 93.9103 195.125C94.5478 194.951 95.1852 194.777 95.842 194.598C107.838 191.498 119.888 190.682 132.212 190.794C134.309 190.813 136.405 190.815 138.502 190.814C145.021 190.832 151.403 190.96 157.848 192C157.848 192.33 157.848 192.66 157.848 193C156.671 193.063 155.494 193.126 154.281 193.191C126.743 195.074 98.3862 204.919 78.8478 225C78.2626 225.599 77.6774 226.199 77.0744 226.816C70.0792 234.443 64.8567 243.023 62.4533 253.137C62.2535 253.751 62.0537 254.366 61.8479 255C60.8578 255.495 60.8578 255.495 59.8479 256C59.3217 243.548 65.2381 229.463 73.467 220.172C78.5378 214.766 83.7471 209.254 89.8478 205C77.125 206.974 66.3151 213.486 56.8479 222C56.2136 222.541 55.5794 223.083 54.926 223.64C46.8527 230.999 40.275 242.229 39.7365 253.286C39.6048 258.861 39.6933 264.425 39.8479 270C38.8578 269.505 38.8578 269.505 37.8479 269C34.2773 257.649 34.66 245.045 38.8479 234C39.3428 232.515 39.3428 232.515 39.8479 231C33.2668 241.848 28.8827 251.168 27.8479 264C27.5179 264 27.1879 264 26.8479 264C26.1993 245.289 29.5418 229.078 42.2229 214.687C43.4141 213.442 44.619 212.209 45.8479 211C46.5079 210.34 47.1679 209.68 47.8479 209C35.4173 216.15 25.6164 223.678 17.8479 236C17.3528 235.01 17.3528 235.01 16.8479 234C22.8368 222.107 31.0639 212.763 41.8479 205C33.7312 207.164 27.6086 211.076 20.8479 216C19.8385 216.727 19.8385 216.727 18.8088 217.469C10.1698 224.254 4.87966 233.979 0.84785 244C-0.529848 240.947 -0.0542936 239.708 1.03535 236.461C1.62335 235.092 2.22852 233.73 2.84785 232.375C3.17253 231.658 3.49722 230.941 3.83174 230.202C10.9558 214.893 22.9433 202.014 37.8479 194C38.4553 193.671 39.0628 193.343 39.6887 193.005C48.1589 188.471 56.5763 184.627 65.8478 182C67.1163 181.605 67.1163 181.605 68.4103 181.203C88.4063 175.506 109.737 175.506 130.348 175.312C132.84 175.279 135.332 175.245 137.824 175.209C143.832 175.125 149.84 175.056 155.848 175C154.583 174.199 153.317 173.401 152.051 172.604C151.346 172.159 150.641 171.714 149.915 171.256C128.736 158.388 102.045 156.666 78.3657 162.4C75.4977 163.157 72.783 164.028 70.0549 165.195C67.8478 166 67.8478 166 64.8478 165C72.0418 161.864 79.172 159.622 86.8478 158C87.4975 157.862 88.1472 157.723 88.8166 157.581C106.595 153.907 128.69 151.927 145.848 159Z" fill="#0566F5"/>
<path d="M682.848 66C687.59 66.7109 687.59 66.7109 689.91 69.3125C691.818 72.3957 692.549 75.5759 693.473 79.0625C694.586 82.6896 695.178 84.5046 698.254 86.7812C700.926 88.0883 700.926 88.0883 703.605 89.0352C705.848 90 705.848 90 707.848 93C707.848 99.6213 704.867 103.151 700.848 108C699.858 109.32 698.868 110.64 697.848 112C697.848 108.37 697.848 104.74 697.848 101C695.092 107.25 694.457 112.213 694.66 119C694.674 119.87 694.687 120.74 694.701 121.637C694.736 123.758 694.79 125.879 694.848 128C695.508 128 696.168 128 696.848 128C697.002 128.531 697.157 129.063 697.316 129.61C703.556 151.371 703.556 151.371 715.848 170C716.275 174.039 716.333 177.965 715.848 182C713.66 184.562 713.66 184.562 710.848 186C706.297 188.334 704.048 191.126 701.18 195.258C699.548 197.392 698.507 197.909 695.859 198.273C691.871 198.448 689.576 198.503 686.223 196.188C683.464 192.485 680.992 188.663 678.594 184.719C675.46 179.594 675.46 179.594 670.848 176C671.178 174.35 671.508 172.7 671.848 171C672.508 171 673.168 171 673.848 171C674.549 162.799 673.593 156.831 668.848 150C666.798 147.704 664.688 145.578 662.422 143.496C661.902 143.002 661.383 142.509 660.848 142C660.848 141.67 660.848 141.34 660.848 141C669.01 140.132 674.56 144.16 680.848 149C680.813 147.759 680.778 146.517 680.742 145.238C680.714 143.596 680.687 141.954 680.66 140.312C680.635 139.496 680.61 138.679 680.584 137.838C680.524 132.89 680.974 130.174 683.848 126C684.891 120.118 683.514 116.227 680.848 111C680.306 107.677 680.04 104.36 679.848 101C678.858 103.475 678.858 103.475 677.848 106C677.188 106 676.528 106 675.848 106C675.715 105.301 675.582 104.603 675.445 103.883C675.269 102.973 675.092 102.063 674.91 101.125C674.736 100.22 674.562 99.3152 674.383 98.3828C673.948 96.0004 673.948 96.0004 672.848 94C671.204 93.2784 669.537 92.6065 667.848 92C668.147 88.8645 668.854 87.9945 671.246 85.8438C672.228 85.0703 673.211 84.2969 674.223 83.5C680.185 78.3183 681.931 73.7302 682.848 66Z" fill="#0566F5"/>
<path d="M634.598 51.8125C635.38 51.8134 636.163 51.8142 636.97 51.815C645.516 51.9045 653.83 52.8821 661.848 56C661.848 56.33 661.848 56.66 661.848 57C660.573 57.0674 660.573 57.0674 659.272 57.136C623.683 58.4219 623.683 58.4219 591.848 73C590.202 74.1254 588.556 75.2504 586.91 76.375C578.986 81.9597 571.613 88.0866 564.465 94.629C563.033 95.9264 561.593 97.2168 560.123 98.4708C554.286 103.461 548.965 108.888 543.598 114.375C528.405 129.734 528.405 129.734 520.848 134C519.858 134 518.868 134 517.848 134C520.81 131.038 523.772 128.076 526.734 125.113C527.259 124.589 527.783 124.064 528.323 123.523C529.724 122.124 531.129 120.73 532.535 119.336C538.813 112.995 544.327 105.998 549.848 99C549.31 99.3628 548.773 99.7256 548.219 100.099C541.799 104.41 535.269 108.526 528.689 112.588C522.151 116.674 516.632 120.676 511.91 126.875C497.964 144.214 482.108 156.898 461.848 166C460.78 166.483 459.713 166.967 458.613 167.465C452.231 170.13 445.776 171.852 439.035 173.313C438.246 173.484 437.458 173.656 436.645 173.833C431.621 174.847 426.972 175.158 421.848 175C424.621 172.227 427.555 172.328 431.285 171.813C444.674 169.709 458.121 164.822 469.848 158C471.456 157.066 471.456 157.066 473.098 156.113C485.984 148.358 498.187 138.086 505.848 125C505.018 125.366 504.187 125.732 503.332 126.109C494.698 129.907 486.045 133.66 477.383 137.391C475.575 138.17 473.768 138.953 471.962 139.735C451.913 148.355 451.913 148.355 447.848 147C448.526 146.684 449.205 146.367 449.905 146.041C467.179 137.97 467.179 137.97 483.727 128.539C489.301 125.06 495.025 121.833 500.723 118.563C502.994 117.254 505.265 115.946 507.535 114.637C510.476 112.942 513.416 111.248 516.359 109.557C530.985 101.144 545.128 92.0181 558.973 82.375C581.96 66.4223 605.823 51.7814 634.598 51.8125Z" fill="#0566F5"/>
<path d="M535.848 70.9998C527.72 88.8816 509.784 106.272 491.812 114.367C491.164 114.576 490.516 114.785 489.848 115C492.763 111.896 495.718 109.325 499.16 106.812C504.304 102.911 508.032 98.1666 511.848 92.9998C509.885 94.3084 507.951 95.663 506.055 97.0662C489.8 109.084 471.645 120.329 450.848 121C453.95 119.28 457.17 118.196 460.533 117.098C477.786 111.401 491.283 102.099 503.848 88.9998C503.211 89.2189 502.574 89.4381 501.918 89.6638C496.22 91.5229 490.588 93.0901 484.723 94.3201C472.697 96.8485 462.047 99.3577 451.588 105.916C430.992 118.741 406.732 130.315 381.973 130.062C380.82 130.053 379.668 130.044 378.48 130.035C377.612 130.023 376.743 130.012 375.848 130C375.848 129.67 375.848 129.34 375.848 129C377.074 128.815 378.299 128.631 379.562 128.441C403.814 124.481 428.107 115.914 447.848 101C447.239 101.171 446.63 101.342 446.003 101.519C443.182 102.309 440.358 103.092 437.535 103.875C436.578 104.144 435.621 104.414 434.635 104.691C420.758 108.522 407.216 110.054 392.848 110.187C392.022 110.2 391.196 110.213 390.346 110.227C389.563 110.228 388.779 110.229 387.973 110.23C386.925 110.236 386.925 110.236 385.855 110.243C383.514 109.959 381.888 109.154 379.848 108C380.394 107.996 380.94 107.992 381.502 107.987C392.547 107.844 403.168 107.075 413.973 104.687C414.882 104.487 415.792 104.286 416.729 104.079C423.644 102.459 430.049 100.266 436.848 97.9998C425.298 97.9998 413.748 97.9998 401.848 97.9998C401.848 97.6698 401.848 97.3398 401.848 96.9998C402.986 96.8949 402.986 96.8949 404.148 96.7879C428.235 94.6551 428.235 94.6551 451.473 88.3123C455.211 86.9691 458.635 86.7831 462.598 86.6248C471.802 86.1728 480.403 83.9199 489.302 81.6375C491.64 81.0517 493.982 80.5095 496.336 79.992C504.62 78.1643 512.574 75.927 520.522 72.9297C525.82 71.0235 530.218 70.756 535.848 70.9998Z" fill="#0566F5"/>
<path d="M551.847 181C552.839 181.413 553.83 181.825 554.851 182.25C570.442 189.024 583.651 199.84 591.847 215C591.847 215.66 591.847 216.32 591.847 217C588.54 215.505 585.627 213.534 582.618 211.521C573.889 205.759 563.62 200 552.847 200C554.332 201.052 554.332 201.052 555.847 202.125C574.727 215.638 574.727 215.638 576.847 222C575.554 221.588 574.263 221.17 572.972 220.75C572.253 220.518 571.534 220.286 570.793 220.047C569.086 219.44 567.389 218.798 565.731 218.068C559.054 215.176 552.662 213.949 545.472 213C531.344 211.121 518.515 208.544 509.41 196.813C506.506 192.801 505.721 189.749 505.785 184.813C505.794 183.912 505.803 183.01 505.812 182.082C505.824 181.395 505.835 180.708 505.847 180C520.275 175.33 537.814 174.859 551.847 181Z" fill="#0566F5"/>
<path d="M190.848 322C193.454 323.819 195.604 325.757 197.848 328C194.548 328 191.248 328 187.848 328C188.343 329.485 188.343 329.485 188.848 331C200.456 336.096 214.437 334.658 226.467 331.979C229.893 331.239 232.516 330.72 235.848 332C230.83 334.342 225.863 335.893 220.496 337.254C217.809 338.011 215.342 338.737 212.848 340C212.538 341.134 212.229 342.269 211.91 343.438C210.848 347 210.848 347 208.27 348.699C204.431 350.158 201.076 350.356 197.035 350.375C190.243 350.574 185.318 351.882 179.848 356C179.848 354.68 179.848 353.36 179.848 352C179.188 352 178.528 352 177.848 352C177.575 352.575 177.302 353.149 177.021 353.741C175.844 356.006 174.526 358.042 173.082 360.145C169.888 364.884 166.96 369.743 164.098 374.688C163.617 375.503 163.136 376.318 162.641 377.158C160.205 381.355 158.156 385.29 156.848 390C160.108 386.83 163.07 383.601 165.848 380C166.508 380.33 167.168 380.66 167.848 381C158.642 397.634 158.642 397.634 150.848 401C147.825 401.285 144.868 401.325 141.848 401C140.848 400 140.848 400 140.785 397.438C140.816 396.231 140.816 396.231 140.848 395C147.598 391 147.598 391 149.848 391C150.122 390.443 150.397 389.886 150.68 389.313C151.465 387.758 152.275 386.216 153.109 384.688C157.795 375.856 160.882 366.628 164.094 357.186C165.519 353.052 167.114 349.013 168.848 345C169.522 343.399 169.522 343.399 170.211 341.766C179.717 320.052 179.717 320.052 190.848 322Z" fill="#0566F5"/>
<path d="M719.848 249C722.313 249.731 724.777 250.468 727.238 251.215C729.226 251.813 731.223 252.382 733.223 252.938C736.409 254.227 737.787 255.229 739.848 258C740.363 259.488 740.839 260.99 741.285 262.5C742.588 266.786 744.023 268.509 747.848 271C755.732 276.585 758.484 284.21 760.965 293.305C762.013 296.506 763.43 299.412 764.91 302.438C767.681 308.227 769.109 313.642 769.848 320C756.486 319.763 745.794 315.602 734.848 308C734.265 307.604 733.682 307.209 733.082 306.801C731.083 303.885 731.536 300.711 731.66 297.312C731.674 296.611 731.687 295.909 731.701 295.186C731.736 293.457 731.79 291.728 731.848 290C733.052 289.951 734.256 289.902 735.496 289.852C737.072 289.777 738.647 289.701 740.223 289.625C741.017 289.594 741.811 289.563 742.629 289.531C747.214 289.482 747.214 289.482 750.848 287C751.341 283.301 751.196 281.542 749.16 278.375C746.944 275.976 746.944 275.976 744.469 274.215C741.592 271.784 739.74 269.278 737.598 266.188C734.124 261.427 730.71 257.871 725.891 254.5C723.646 252.852 721.773 251.007 719.848 249Z" fill="#0566F5"/>
<path d="M242.847 348C243.837 348.495 243.837 348.495 244.847 349C236.491 356.119 227.479 361.181 216.347 361.438C211.853 361.48 211.853 361.48 207.925 363.32C204.842 367.366 203.797 372.078 202.847 377C203.507 376.67 204.167 376.34 204.847 376C207.52 375.866 210.17 375.957 212.847 376C212.002 376.969 211.156 377.939 210.285 378.938C209.138 380.291 207.993 381.645 206.847 383C206.283 383.641 205.718 384.281 205.136 384.941C200.368 390.627 197.399 396.716 194.425 403.449C190.087 413.209 190.087 413.209 185.66 416.5C182.275 419.196 182.275 419.196 181.347 423.438C181.512 424.283 181.677 425.129 181.847 426C179.867 426.99 179.867 426.99 177.847 428C173.621 423.015 171.195 420.09 171.238 413.355C172.253 409.431 175.253 408.118 178.468 405.914C182.74 402.477 184.639 397.92 186.847 393C187.636 391.295 187.636 391.295 188.441 389.555C191.748 382.066 193.749 374.878 194.647 366.722C195.474 360.387 198.412 357.923 203.222 354.125C206.8 352.591 209.111 353.1 212.847 354C213.837 354.66 214.827 355.32 215.847 356C224.134 356.472 233.589 353.644 240.578 349.305C241.327 348.874 242.076 348.444 242.847 348Z" fill="#0566F5"/>
<path d="M689.848 294C694.865 294.478 697.841 295.973 701.848 299C702.381 299.373 702.915 299.745 703.465 300.129C705.661 303.101 705.522 306.488 705.785 310.062C706.645 318.992 708.905 325.793 713.535 333.5C716.219 338.124 716.996 342.672 716.848 348C716.518 348.33 716.188 348.66 715.848 349C715.69 350.706 715.597 352.417 715.531 354.129C715.468 355.681 715.468 355.681 715.404 357.264C715.365 358.352 715.326 359.441 715.285 360.562C715.22 362.201 715.22 362.201 715.154 363.873C715.048 366.582 714.946 369.291 714.848 372C708.452 369.577 703.967 365.466 698.848 361C697.394 359.762 697.394 359.762 695.91 358.5C689.234 352.43 689.234 352.43 688.156 348.438C688.1 346.1 688.173 344.236 688.848 342C689.508 341.34 690.168 340.68 690.848 340C694.38 340.321 697.482 340.878 700.848 342C702.242 342.067 703.639 342.085 705.035 342.062C706.293 342.042 707.551 342.021 708.848 342C709.302 336.73 707.8 333.16 705.348 328.625C705.014 327.984 704.68 327.344 704.336 326.684C703.517 325.117 702.684 323.557 701.848 322C700.909 322.039 699.971 322.077 699.004 322.117C695.848 322 695.848 322 693.348 320.125C690.506 316.93 688.524 313.18 686.383 309.5C682.789 303.648 678.733 299.503 672.848 296C676.766 294.694 678.1 295.652 681.848 297.25C682.9 297.688 683.951 298.127 685.035 298.578C688.363 300.26 690.248 301.471 691.621 304.973C691.82 305.662 692.018 306.352 692.223 307.062C693.389 310.513 693.389 310.513 696.535 312.5C697.298 312.665 698.061 312.83 698.848 313C698.591 307.115 698.185 303.337 693.848 299C692.514 297.667 691.181 296.333 689.848 295C689.848 294.67 689.848 294.34 689.848 294Z" fill="#0566F5"/>
<path d="M551.848 181C552.839 181.412 553.83 181.825 554.852 182.25C570.443 189.024 583.651 199.84 591.848 215C591.848 215.66 591.848 216.32 591.848 217C588.541 215.505 585.628 213.535 582.619 211.521C572.848 205.073 563.453 201.601 551.969 199.183C547.033 197.957 542.823 195.531 538.41 193.062C532.335 189.677 526.497 187.036 519.848 185C517.823 184.28 515.802 183.553 513.785 182.812C512.845 182.468 511.906 182.124 510.938 181.769C510.248 181.515 509.558 181.261 508.848 181C508.848 180.34 508.848 179.68 508.848 179C522.179 175.122 539.127 175.433 551.848 181Z" fill="#0566F5"/>
<path d="M622.848 6C623.178 6 623.508 6 623.848 6C623.942 6.83531 623.942 6.83531 624.039 7.6875C625.547 17.0854 630.922 21.7236 638.343 27.1194C641.153 29.117 643.992 31.0673 646.848 33C646.188 33.33 645.528 33.66 644.848 34C642.789 33.2578 642.789 33.2578 640.41 32.125C637.884 30.935 635.502 29.8849 632.848 29C632.848 29.33 632.848 29.66 632.848 30C627.739 29.423 622.867 28.5767 617.848 27.4375C610.593 25.9526 603.428 25.6697 596.035 25.625C594.979 25.6114 593.922 25.5978 592.834 25.5837C591.842 25.5896 590.85 25.5955 589.828 25.6016C588.94 25.6049 588.052 25.6083 587.137 25.6118C584.366 26.0816 583.74 27.0122 581.848 29C579.913 29.5208 579.913 29.5208 577.699 29.7383C576.868 29.8331 576.037 29.9279 575.181 30.0256C574.288 30.1203 573.394 30.215 572.473 30.3125C564.53 31.2894 556.969 32.8218 549.285 35.0625C548.4 35.3201 547.514 35.5776 546.602 35.843C539.486 37.8528 539.486 37.8528 533.785 42.3125C524.437 50.865 510.54 52.5615 498.51 54.7883C488.674 56.6133 479.859 58.5578 470.848 63C477.778 63 484.708 63 491.848 63C489.265 65.5824 488.129 65.2805 484.535 65.3867C483.459 65.4389 482.382 65.4911 481.273 65.5449C479.022 65.6386 476.769 65.7147 474.516 65.7715C465.989 66.2317 461.413 68.7384 454.848 74C451.11 76.3909 447.668 77.8512 443.41 79.125C441.772 79.6239 441.772 79.6239 440.102 80.1328C434.635 81.5896 429.628 82.1202 423.973 82.0625C422.244 82.049 422.244 82.049 420.48 82.0352C419.612 82.0236 418.743 82.012 417.848 82C417.848 81.67 417.848 81.34 417.848 81C418.97 80.8298 420.093 80.6597 421.25 80.4844C429.277 79.2113 436.688 78.0268 443.848 74C444.901 73.4212 445.954 72.8424 447.039 72.2461C451.791 69.5959 456.484 66.8916 461.039 63.9141C474.271 55.2695 486.717 51.8993 502.296 50.2505C512.621 49.0313 524.761 46.1633 531.848 38C530.363 37.505 530.363 37.505 528.848 37C529.887 36.6855 530.926 36.3709 531.996 36.0469C533.405 35.6154 534.814 35.183 536.223 34.75C536.959 34.5247 537.696 34.2995 538.455 34.0674C542.403 32.8387 546.15 31.4862 549.91 29.75C555.235 27.4922 560.548 27.5186 566.266 27.2695C570.98 26.9148 574.54 25.9309 578.848 24C579.178 23.01 579.508 22.02 579.848 21C597.251 20.841 612.952 21.6961 629.848 26C629.342 25.3104 628.837 24.6207 628.316 23.9102C623.932 17.5688 621.962 13.7205 622.848 6Z" fill="#0566F5"/>
<path d="M143.301 409.213C144.184 409.324 145.067 409.435 145.976 409.549C146.64 409.645 147.304 409.74 147.988 409.838C147.988 411.158 147.988 412.478 147.988 413.838C147.422 413.959 146.856 414.081 146.273 414.205C145.54 414.373 144.806 414.541 144.051 414.713C143.32 414.876 142.589 415.038 141.836 415.205C139.781 415.668 139.781 415.668 138.988 417.838C138.621 423.348 138.641 427.195 141.988 431.838C144.292 433.195 146.432 433.97 148.988 434.838C148.988 435.498 148.988 436.158 148.988 436.838C146.797 438.666 144.609 440.358 142.301 442.026C141.626 442.515 140.951 443.005 140.256 443.509C123.488 455.456 123.488 455.456 115.988 454.838C115.427 441.816 116.314 430.452 122.988 418.838C125.293 416.573 125.293 416.573 127.863 414.588C129.128 413.59 129.128 413.59 130.418 412.573C134.872 409.567 137.948 408.499 143.301 409.213Z" fill="#0566F5"/>
<path d="M617.848 97C618.508 97 619.168 97 619.848 97C619.885 97.9668 619.923 98.9336 619.961 99.9297C620.602 112.616 622.444 124.568 631.848 134C634.159 135.662 636.601 137.013 639.098 138.375C650.663 145.027 660.601 153.985 666.848 166C666.848 167.32 666.848 168.64 666.848 170C666.188 170 665.528 170 664.848 170C663.603 168.569 662.427 167.077 661.286 165.562C652.536 154.421 643.495 145.363 629.348 142.062C619.326 139.667 611.783 134.45 606.004 125.883C605.623 125.261 605.241 124.64 604.848 124C603.858 122.391 603.858 122.391 602.848 120.75C601.848 118 601.848 118 602.473 115.688C603.848 114 603.848 114 606.848 113C607.552 111.686 608.211 110.348 608.848 109C610.169 107.266 611.526 105.559 612.911 103.875C615.653 100.614 615.653 100.614 617.848 97Z" fill="#0566F5"/>
<path d="M539.848 272C541.869 274.628 543.668 277.307 545.41 280.125C548.574 284.938 552.442 288.723 556.59 292.691C558.491 294.635 559.784 296.28 561.098 298.625C562.662 301.282 562.662 301.282 565.723 301.688C569.035 301.23 569.035 301.23 571.5 298.598C575.171 295.425 578.872 294.716 583.535 293.75C597.823 290.375 610.745 284.07 622.598 275.434C624.848 274 624.848 274 627.848 274C615.312 285.958 601.934 294.336 586.442 301.915C580.391 304.925 575.224 307.916 570.332 312.611C568.192 314.614 566.982 314.985 564.035 315.312C559.843 314.902 558.853 313.992 555.848 311C553.587 307.453 551.688 303.748 549.785 300C549.011 298.532 549.011 298.532 548.221 297.035C539.848 280.801 539.848 280.801 539.848 272Z" fill="#0566F5"/>
<path d="M672.848 214C679.059 216.988 682.907 221.043 686.887 226.554C689.988 230.422 693.685 233.572 697.395 236.836C699.287 238.505 701.095 240.188 702.848 242C696.853 240.422 692.049 237.25 686.848 234C685.133 232.939 683.419 231.877 681.703 230.819C680.044 229.794 678.387 228.764 676.73 227.734C670.567 224.026 666.098 222.935 658.848 224C654.692 225.604 650.977 227.78 647.16 230.062C645.044 231.262 642.926 232.457 640.805 233.648C639.785 234.227 638.764 234.805 637.713 235.401C628.131 240.747 619.296 244.377 608.305 245.372C601.36 246.021 596.894 248.178 591.66 252.625C587.095 256.48 583.774 257.275 577.848 257C579.848 255 579.848 255 583.348 253.562C588.557 251.081 591.73 246.938 595.355 242.558C601.272 236.484 608.008 236.282 616.035 235.312C629.71 233.448 643.095 230.059 653.848 221C666.583 212.463 666.583 212.463 672.848 214Z" fill="#0566F5"/>
<path d="M98.8478 221C99.5078 221.33 100.168 221.66 100.848 222C99.8868 222.727 99.8868 222.727 98.9064 223.469C93.2395 227.86 88.0764 232.181 83.8478 238C83.2548 238.803 82.6618 239.606 82.0509 240.434C75.6105 250.847 77.1198 263.484 79.6525 275.031C82.1668 284.091 85.8263 289.15 93.8478 294C92.1251 294.66 92.1251 294.66 89.8478 295C84.0072 292.315 79.6191 288.11 75.8478 283C78.8717 290.356 82.0184 294.831 88.8478 299C85.8478 300 85.8478 300 83.8673 299.32C76.2017 295.169 69.7838 289.688 66.8478 281.25C63.4852 267.301 66.466 254.807 73.4532 242.656C79.4282 233.029 89.4237 226.888 98.8478 221Z" fill="#0566F5"/>
<path d="M207.848 205C207.848 205.33 207.848 205.66 207.848 206C203.228 206 198.608 206 193.848 206C193.848 206.66 193.848 207.32 193.848 208C199.128 208.66 204.408 209.32 209.848 210C209.848 210.33 209.848 210.66 209.848 211C203.138 212.215 196.435 213.19 189.66 213.938C174.044 215.71 158.305 217.628 144.688 226.047C142.848 227 142.848 227 139.848 227C144.661 222.518 149.563 219.234 155.41 216.25C156.139 215.865 156.868 215.479 157.619 215.082C161.615 213.003 165.513 211.288 169.848 210C155.358 209.279 144.619 211.737 132.211 219.707C131.431 220.134 130.651 220.56 129.848 221C129.188 220.67 128.528 220.34 127.848 220C149.726 201.039 180.634 198.166 207.848 205Z" fill="#0566F5"/>
<path d="M160.848 422C165.405 422.438 168.425 422.85 171.848 426C170.858 426.495 170.858 426.495 169.848 427C169.848 428.98 169.848 430.96 169.848 433C171.491 433.897 171.491 433.897 173.848 434C178.896 431.524 183.324 428.324 187.848 425C188.508 425.33 189.168 425.66 189.848 426C188.961 426.887 188.074 427.774 187.161 428.688C183.413 432.971 181.922 437.745 180.219 443.109C178.588 446.548 177.298 447.492 173.848 449C172.611 449.103 171.373 449.206 170.098 449.312C165.596 449.734 162.842 451.704 159.227 454.301C156.686 456.116 154.082 457.757 151.411 459.375C150.587 459.878 149.763 460.38 148.915 460.898C146.848 462 146.848 462 144.848 462C144.261 458.773 144.01 457.107 144.848 454C148.804 449.287 153.408 445.694 158.911 443C160.784 441.421 161.73 440.466 162.338 438.067C162.39 437.358 162.443 436.649 162.497 435.918C162.585 434.765 162.585 434.765 162.676 433.588C162.837 430.053 162.875 426.538 162.848 423C162.188 422.67 161.528 422.34 160.848 422Z" fill="#0566F5"/>
<path d="M329.848 316C330.178 316 330.508 316 330.848 316C330.372 322.087 329.036 326.603 326.223 332C325.681 333.05 325.681 333.05 325.128 334.121C319.799 344.151 313.449 349.121 303.848 355C302.755 355.681 301.663 356.362 300.537 357.064C276.893 371.537 256.137 373.08 228.848 371C230.721 368.467 231.723 368.021 234.888 367.495C236.117 367.43 237.347 367.364 238.613 367.297C239.985 367.208 241.357 367.118 242.729 367.026C243.443 366.982 244.158 366.938 244.894 366.892C256.009 366.174 265.86 365.351 275.699 359.754C279.159 357.827 282.5 356.714 286.285 355.562C302.467 350.378 316.095 343.105 324.848 328C326.689 324.06 328.329 320.074 329.848 316Z" fill="#0566F5"/>
<path d="M688.848 242C701.304 242.94 709.706 247.623 718.848 256C719.747 256.795 720.647 257.591 721.574 258.41C726.347 262.835 726.347 262.835 727.848 265C727.667 268.394 727.268 269.58 724.848 272C722.223 272.562 722.223 272.562 718.848 272C715.551 269.637 712.71 266.862 709.848 264C709.518 265.98 709.188 267.96 708.848 270C706.74 267.892 704.637 265.782 702.562 263.641C695.655 256.922 687.947 251.286 678.848 248C678.848 247.34 678.848 246.68 678.848 246C687.395 247.953 694.991 251.14 702.848 255C702.848 254.34 702.848 253.68 702.848 253C702.284 252.742 701.721 252.484 701.141 252.219C698.59 250.863 696.437 249.276 694.16 247.5C693.373 246.892 692.585 246.283 691.773 245.656C689.848 244 689.848 244 688.848 242Z" fill="#0566F5"/>
<path d="M222.848 211C221.848 215.299 220.484 218.149 216.91 220.855C213.352 222.83 209.519 223.8 205.621 224.91C191.973 228.852 179.589 233.389 168.848 243C170.292 239.761 172.105 237.38 174.473 234.75C175.104 234.044 175.736 233.337 176.387 232.609C176.869 232.078 177.351 231.547 177.848 231C168.166 234.708 160.57 239.475 155.848 249C154.924 251.69 154.358 254.19 153.848 257C153.518 257 153.188 257 152.848 257C151.98 249.339 154.44 244.228 158.848 238C169.845 225.809 183.936 219.867 199.773 217.148C207.221 215.84 215.614 211 222.848 211Z" fill="#0566F5"/>
<path d="M703.848 21C703.317 34.7168 699.643 43.3311 689.848 53C689.261 53.5878 688.675 54.1756 688.07 54.7812C687.667 55.1834 687.263 55.5856 686.848 56C683.198 54.3953 680.36 52.1438 677.285 49.625C676.335 48.8541 675.385 48.0833 674.406 47.2891C672.189 45.3054 670.509 43.4503 668.848 41C669.425 41.3094 670.003 41.6187 670.598 41.9375C673.603 43.4209 673.603 43.4209 676.848 44C679.503 42.1429 679.503 42.1429 682.098 39.5C683.076 38.5671 684.055 37.6348 685.035 36.7031C685.963 35.8111 686.891 34.9191 687.848 34C689.255 32.7394 690.67 31.4878 692.098 30.25C692.723 29.7073 693.348 29.1646 693.992 28.6055C694.604 28.0757 695.217 27.5459 695.848 27C696.843 26.1279 696.843 26.1279 697.859 25.2383C702.73 21 702.73 21 703.848 21Z" fill="#0566F5"/>
<path d="M626.848 165C628.417 167.953 629.502 170.887 630.535 174.062C633.975 183.618 640.104 191.526 646.149 199.59C649.38 204.173 650.564 207.273 649.848 213C647.473 215.438 647.473 215.438 644.848 217C644.188 217 643.528 217 642.848 217C642.799 216.024 642.75 215.048 642.7 214.043C642.587 212.135 642.587 212.135 642.473 210.188C642.403 208.923 642.334 207.658 642.262 206.355C642.087 202.872 642.087 202.872 639.848 200C638.858 203.63 637.868 207.26 636.848 211C636.518 211 636.188 211 635.848 211C635.724 209.082 635.724 209.082 635.598 207.125C634.994 201.632 633.037 197.03 630.848 192C627.115 182.969 626.704 174.726 626.848 165Z" fill="#0566F5"/>
<path d="M110.848 167C111.905 167.039 111.905 167.039 112.984 167.079C120.637 167.406 120.637 167.406 123.848 168C124.343 168.99 124.343 168.99 124.848 170C124.22 170.015 123.593 170.029 122.946 170.044C92.6046 170.826 56.725 174.777 31.8477 194C31.1877 193.67 30.5277 193.34 29.8477 193C41.1621 184.203 53.1154 176.464 67.0781 172.754C69.8264 172.067 69.8264 172.067 72.2695 171.004C84.5157 166.235 97.9396 166.516 110.848 167Z" fill="#0566F5"/>
<path d="M663.848 241C662.464 243.766 661.114 243.8 658.223 244.875C649.582 248.341 641.459 252.811 633.238 257.16C626.62 260.656 620.107 264.029 613.098 266.687C612.01 267.104 610.922 267.52 609.801 267.949C607.482 268.774 605.246 269.47 602.848 270C605.021 267.67 607.238 266 609.945 264.328C610.742 263.832 611.539 263.335 612.36 262.824C613.622 262.045 613.622 262.045 614.91 261.25C620.209 257.949 625.469 254.653 630.535 251C640.503 243.943 651.501 240.273 663.848 241Z" fill="#0566F5"/>
<path d="M145.848 152C150.99 151.82 155.58 152.393 160.535 153.687C161.236 153.87 161.936 154.052 162.658 154.24C184.461 160.119 206.582 174.552 219.848 193C219.353 193.99 219.353 193.99 218.848 195C218.132 194.322 217.417 193.644 216.68 192.945C205.613 182.563 194.088 173.504 180.848 166C180.246 165.657 179.645 165.314 179.025 164.96C168.395 158.992 157.709 155.682 145.848 153C145.848 152.67 145.848 152.34 145.848 152Z" fill="#0566F5"/>
<path d="M519.848 36.9999C519.848 37.6599 519.848 38.3199 519.848 38.9999C517.926 39.2377 517.926 39.2377 515.965 39.4804C500.597 41.4977 488.177 45.3429 474.891 53.4008C463.24 60.458 450.612 64.6998 436.848 63.9999C436.848 63.6699 436.848 63.3399 436.848 62.9999C437.961 62.804 439.075 62.608 440.223 62.4062C453.215 59.9348 463.585 55.2376 474.945 48.621C489.717 40.0356 502.791 36.713 519.848 36.9999Z" fill="#0566F5"/>
<path d="M658.848 260C658.96 260.606 659.072 261.212 659.188 261.836C661.904 273.375 670.542 280.346 679.848 287C680.898 287.762 680.898 287.762 681.969 288.539C683.587 289.704 685.216 290.854 686.848 292C685.858 292.495 685.858 292.495 684.848 293C682.473 292.032 680.293 291.009 678.035 289.812C677.369 289.461 676.702 289.109 676.016 288.747C670.355 285.597 665.786 281.714 661.237 277.126C656.671 272.553 652.264 269.944 645.848 269C645.848 268.34 645.848 267.68 645.848 267C647.93 265.273 647.93 265.273 650.66 263.375C652 262.428 652 262.428 653.367 261.461C655.848 260 655.848 260 658.848 260Z" fill="#0566F5"/>
<path d="M91.8477 242C92.1777 242.66 92.5077 243.32 92.8477 244C92.2186 244.96 91.5895 245.921 90.9414 246.91C87.9652 251.868 88.2606 256.796 88.3477 262.438C88.3322 263.436 88.3167 264.434 88.3008 265.463C88.3349 271.945 89.3394 276.535 92.8477 282C93.5167 283.075 93.5167 283.075 94.1992 284.172C98.2309 289.168 102.804 291.077 108.848 293C106.342 293.916 105.101 294.078 102.516 293.285C96.1101 290.128 92.2549 286.54 87.8477 281C86.9054 280.026 85.9489 279.065 84.9727 278.125C81.8807 275.033 81.6704 273.27 81.5977 269C81.7226 259.421 84.8775 248.97 91.8477 242Z" fill="#0566F5"/>
<path d="M671.848 219C676.311 220.965 679.063 223.229 681.047 227.707C681.443 228.842 681.443 228.842 681.848 230C681.109 229.567 680.37 229.134 679.609 228.687C678.595 228.131 677.58 227.574 676.535 227C675.549 226.443 674.563 225.886 673.547 225.312C667.491 223.164 662.004 222.768 655.936 225.137C652.977 226.653 650.132 228.282 647.285 230C645.348 231.128 643.409 232.253 641.469 233.375C640.628 233.878 639.786 234.38 638.92 234.898C636.848 236 636.848 236 634.848 236C634.848 234.68 634.848 233.36 634.848 232C637.703 230.096 640.509 228.673 643.598 227.187C647.202 225.439 650.213 223.826 653.16 221.125C658.39 217.17 665.717 218.06 671.848 219Z" fill="#0566F5"/>
<path d="M672.848 6C673.848 8 673.848 8 673.324 9.85547C672.903 11.0098 672.903 11.0098 672.473 12.1875C670.273 19.0275 670.124 25.8625 669.848 33C665.767 31.4566 662.432 29.5007 658.848 27C659.156 19.6088 662.493 15.1596 667.801 10.1602C669.455 8.7316 671.126 7.34503 672.848 6Z" fill="#0566F5"/>
<path d="M178.848 375C178.848 378.704 177.691 380.545 175.973 383.812C172.981 389.514 170.74 394.576 170.473 401.062C170.079 405.491 169.388 408.034 165.848 411C162.598 411.812 162.598 411.812 159.848 412C160.223 405.115 162.242 400.803 165.848 395C166.486 393.939 167.124 392.878 167.781 391.785C171.27 386.028 174.829 380.401 178.848 375Z" fill="#0566F5"/>
<path d="M512.848 58C511.74 58.6362 511.74 58.6362 510.609 59.2852C505.509 62.2337 500.489 65.2165 495.598 68.5C484.62 75.549 469.019 83.4828 455.848 83C459.316 81.0896 462.88 80.0263 466.66 78.875C477.047 75.5414 487.248 70.8742 495.238 63.3164C499.337 59.9639 507.733 55.4425 512.848 58Z" fill="#0566F5"/>
<path d="M531.848 24.8124C532.82 24.8001 533.792 24.7879 534.793 24.7753C539.882 24.7649 544.085 24.9646 548.848 26.9999C548.848 27.3299 548.848 27.6599 548.848 27.9999C547.695 27.9982 547.695 27.9982 546.519 27.9965C530.323 28.052 515.987 28.9324 500.656 34.5785C498.848 34.9999 498.848 34.9999 495.848 33.9999C507.059 26.8654 518.778 24.821 531.848 24.8124Z" fill="#0566F5"/>
<path d="M226.848 220C219.053 227.221 211.361 231.437 200.918 233.609C194.159 235.019 189.847 236.934 184.688 241.574C182.848 243 182.848 243 179.848 243C186.907 235.635 194.606 231.862 203.848 228C204.954 227.536 206.06 227.072 207.199 226.594C209.191 225.767 211.185 224.947 213.184 224.137C215.669 223.076 218.027 221.895 220.41 220.625C223.848 219 223.848 219 226.848 220Z" fill="#0566F5"/>
<path d="M638.848 297C640.319 297.468 640.319 297.468 641.82 297.945C645.95 299.127 650.02 299.499 654.285 299.875C660.468 300.525 665.711 301.242 670.848 305C671.504 305.48 672.16 305.959 672.836 306.453C676.266 309.175 677.901 310.671 678.848 315C678.352 314.616 677.856 314.232 677.345 313.837C670.842 309.126 664.274 306.916 656.598 304.75C654.3 304.08 652.003 303.408 649.707 302.734C648.701 302.448 647.695 302.161 646.659 301.866C643.985 301.042 641.428 300.078 638.848 299C638.848 298.34 638.848 297.68 638.848 297Z" fill="#0566F5"/>
<path d="M671.848 178C677.298 182.624 680.613 188.689 683.848 195C683.848 195.66 683.848 196.32 683.848 197C680.015 197.456 677.98 197.064 674.473 195.375C671.985 193.166 671.84 191.931 671.473 188.551C671.473 185.015 671.59 181.526 671.848 178Z" fill="#0566F5"/>
<path d="M197.848 164C212.406 168.301 224.953 180.078 232.801 192.75C233.146 193.493 233.492 194.235 233.848 195C233.518 195.66 233.188 196.32 232.848 197C230.929 194.939 229.013 192.877 227.098 190.812C226.559 190.234 226.02 189.656 225.465 189.061C223.15 186.562 220.924 184.1 218.855 181.391C216.384 178.448 213.535 176.22 210.473 173.938C209.645 173.306 209.645 173.306 208.801 172.662C206.069 170.594 203.306 168.623 200.434 166.754C199.58 166.175 198.727 165.596 197.848 165C197.848 164.67 197.848 164.34 197.848 164Z" fill="#0566F5"/>
<path d="M592.785 36.9373C593.755 36.9419 594.725 36.9464 595.725 36.951C598.099 36.9627 600.473 36.9791 602.848 36.9998C602.848 37.3298 602.848 37.6598 602.848 37.9998C601.841 38.0256 600.834 38.0514 599.797 38.078C579.481 38.8051 559.796 43.8341 541.232 52.1751C538.848 52.9998 538.848 52.9998 535.848 51.9998C539.902 50.2106 543.968 48.4471 548.035 46.6873C549.166 46.1878 550.297 45.6883 551.463 45.1737C564.974 39.3611 578.127 36.8071 592.785 36.9373Z" fill="#0566F5"/>
<path d="M634.848 13C635.838 13.8456 636.828 14.6913 637.848 15.5625C638.491 16.1104 639.134 16.6582 639.797 17.2227C641.129 18.3774 642.446 19.5511 643.742 20.7461C647.24 23.9447 650.663 26.5829 654.785 28.9375C660.097 31.9766 664.428 35.7941 668.848 40C665.072 40 663.72 38.8258 660.598 36.75C657.541 34.7389 654.543 32.789 651.285 31.125C644.665 27.422 638.326 21.7645 634.848 15C634.848 14.34 634.848 13.68 634.848 13Z" fill="#0566F5"/>
<path d="M164.848 204C164.188 205.965 164.188 205.965 162.848 208C160.352 208.504 160.352 208.504 157.41 208.563C153.491 208.487 153.491 208.487 150.324 210.41C149.837 210.935 149.35 211.459 148.848 212C146.43 212.992 146.43 212.992 143.66 213.875C139.079 215.437 135.347 217.351 131.406 220.145C130.892 220.427 130.378 220.709 129.848 221C129.188 220.67 128.528 220.34 127.848 220C134.816 213.961 142.543 209.905 151.098 206.625C152.108 206.231 152.108 206.231 153.138 205.829C157.178 204.341 160.551 203.72 164.848 204Z" fill="#0566F5"/>
<path d="M199.848 404C200.508 404 201.168 404 201.848 404C202.229 413.261 202.106 420.112 196.848 428C196.188 428 195.528 428 194.848 428C195.188 419.506 197.104 412.026 199.848 404Z" fill="#0566F5"/>
<path d="M580.848 0C593.039 1.71327 603.687 7.76985 611.848 17C611.848 17.66 611.848 18.32 611.848 19C607.922 18.4328 605.991 16.5568 603.098 13.9375C596.358 8.2309 588.828 4.67498 580.848 1C580.848 0.67 580.848 0.34 580.848 0Z" fill="#0566F5"/>
<path d="M702.848 171C705.818 171.495 705.818 171.495 708.848 172C708.848 172.66 708.848 173.32 708.848 174C708.188 174 707.528 174 706.848 174C706.848 174.66 706.848 175.32 706.848 176C707.508 176 708.168 176 708.848 176C706.741 181.997 706.741 181.997 703.848 184C701.66 183.688 701.66 183.688 699.848 183C700.705 174.429 700.705 174.429 702.848 171Z" fill="#1A2332"/>
<path d="M438.848 135C439.508 135.33 440.168 135.66 440.848 136C426.566 145.716 413.484 151.578 395.848 151C395.848 150.67 395.848 150.34 395.848 150C397.034 149.781 398.22 149.562 399.441 149.336C413.655 146.597 426.657 143.046 438.848 135Z" fill="#0566F5"/>
<path d="M571.848 21.0001C571.848 21.6601 571.848 22.3201 571.848 23.0001C571.147 22.7973 570.446 22.5946 569.724 22.3856C561.679 20.1993 553.904 19.3042 545.598 18.8126C544.364 18.7308 543.13 18.6489 541.859 18.5646C538.856 18.3667 535.852 18.1787 532.848 18.0001C532.848 17.6701 532.848 17.3401 532.848 17.0001C546.721 14.8658 558.629 16.594 571.848 21.0001Z" fill="#0566F5"/>
<path d="M97.8477 260C98.1777 260 98.5077 260 98.8477 260C98.9946 261.303 98.9946 261.303 99.1445 262.633C100.122 271.6 100.122 271.6 104.848 279C109.563 282.279 114.037 284.553 119.848 285C119.848 285.33 119.848 285.66 119.848 286C114.248 286.29 110.631 286.257 105.848 283C97.9113 274.982 97.9113 274.982 97.75 269.961C97.7616 268.778 97.7732 267.594 97.7852 266.375C97.7942 265.186 97.8032 263.998 97.8125 262.773C97.8241 261.858 97.8357 260.943 97.8477 260Z" fill="#0566F5"/>
<path d="M329.848 316C330.178 316 330.508 316 330.848 316C330.367 322.066 329.004 326.584 326.285 332C325.791 333.019 325.791 333.019 325.287 334.059C324.484 335.711 323.667 337.356 322.848 339C322.518 338.34 322.188 337.68 321.848 337C320.858 337.33 319.868 337.66 318.848 338C320.31 334.949 321.991 332.117 323.785 329.25C326.403 324.936 328.254 320.78 329.848 316Z" fill="#0566F5"/>
<path d="M123.848 243C124.178 243.66 124.508 244.32 124.848 245C124.373 246.196 123.899 247.392 123.41 248.625C121.116 254.51 120.895 259.364 123.348 265.25C125.752 269.675 129.25 271.304 133.848 273C133.848 273.33 133.848 273.66 133.848 274C131.085 274.502 129.391 274.357 127.027 272.805C122.677 269.183 120.121 266.606 119.512 260.793C119.434 253.647 119.449 248.773 123.848 243Z" fill="#0566F5"/>
<path d="M625.848 273C626.508 273.33 627.168 273.66 627.848 274C617.474 283.595 617.474 283.595 611.848 287C610.858 286.01 609.868 285.02 608.848 284C609.567 283.553 609.567 283.553 610.301 283.098C612.463 281.754 614.624 280.408 616.785 279.062C617.917 278.36 617.917 278.36 619.072 277.643C619.791 277.195 620.51 276.747 621.25 276.285C621.915 275.871 622.58 275.458 623.265 275.031C624.823 274.094 624.823 274.094 625.848 273Z" fill="#0566F5"/>
<path d="M564.848 6C572.502 6.29438 578.221 9.32542 584.848 13C585.793 13.5182 586.737 14.0364 587.711 14.5703C588.769 15.278 588.769 15.278 589.848 16C589.848 16.66 589.848 17.32 589.848 18C585.784 16.9307 582.561 15.2791 579.035 13.0625C574.473 10.2311 570.011 8.42174 564.848 7C564.848 6.67 564.848 6.34 564.848 6Z" fill="#0566F5"/>
<path d="M660.848 158C666.848 165.4 666.848 165.4 666.848 170C666.188 170 665.528 170 664.848 170C663.34 168.031 663.34 168.031 661.723 165.5C661.184 164.665 660.645 163.829 660.09 162.969C659.68 162.319 659.27 161.669 658.848 161C659.508 161 660.168 161 660.848 161C660.848 160.01 660.848 159.02 660.848 158Z" fill="#0566F5"/>
<path d="M154.848 218C153.541 221.92 152.061 222.28 148.473 224.188C147.496 224.717 146.518 225.247 145.512 225.793C142.848 227 142.848 227 139.848 227C149.954 218 149.954 218 154.848 218Z" fill="#0566F5"/>
<path d="M103.848 280C106.454 280.501 108.343 281.258 110.723 282.5C113.843 283.998 116.43 284.593 119.848 285C119.848 285.33 119.848 285.66 119.848 286C114.24 286.29 110.723 286.134 105.848 283C105.188 282.01 104.528 281.02 103.848 280Z" fill="#0566F5"/>
<path d="M666.848 278C670.664 279.555 673.04 282.036 675.848 285C675.518 285.66 675.188 286.32 674.848 287C670.81 285.654 669.375 283.347 666.848 280C666.848 279.34 666.848 278.68 666.848 278Z" fill="#0566F5"/>
<path d="M329.848 316C330.178 316 330.508 316 330.848 316C330.368 320.714 329.879 324.666 327.848 329C326.858 328.67 325.868 328.34 324.848 328C326.498 324.04 328.148 320.08 329.848 316Z" fill="#0566F5"/>
<path d="M367.848 217C370.323 217.495 370.323 217.495 372.848 218C373.944 221.29 373.647 222.713 372.848 226C372.518 226 372.188 226 371.848 226C371.848 224.35 371.848 222.7 371.848 221C370.528 220.67 369.208 220.34 367.848 220C367.848 219.01 367.848 218.02 367.848 217Z" fill="#0566F5"/>
<path d="M664.848 98C667.158 98.33 669.468 98.66 671.848 99C672.178 99.99 672.508 100.98 672.848 102C669.132 102.201 668.076 102.152 664.848 100C664.848 99.34 664.848 98.68 664.848 98Z" fill="#0566F5"/>
<path d="M675.848 97C676.178 97.99 676.508 98.98 676.848 100C677.508 100 678.168 100 678.848 100C678.518 101.98 678.188 103.96 677.848 106C677.188 106 676.528 106 675.848 106C675.848 103.03 675.848 100.06 675.848 97Z" fill="#0566F5"/>
<path d="M642.848 228C644.168 228 645.488 228 646.848 228C646.518 228.99 646.188 229.98 645.848 231C644.198 231.33 642.548 231.66 640.848 232C641.508 230.68 642.168 229.36 642.848 228Z" fill="#0566F5"/>
<path d="M660.848 35C664.103 35.3488 664.866 36.0213 667.098 38.5625C667.675 39.3669 668.253 40.1712 668.848 41C665.876 39.8755 663.513 38.7771 660.848 37C660.848 36.34 660.848 35.68 660.848 35Z" fill="#0566F5"/>
</svg>
