<svg width="802" height="497" viewBox="0 0 802 497" fill="none" xmlns="http://www.w3.org/2000/svg">
<g clip-path="url(#clip0_2012_4125)">
<path d="M388 231C389.7 232.632 391.373 234.294 393 236C396.443 237.147 399.243 237.146 402.875 237.25C414.103 237.746 425.353 240.451 436 244C436 244.66 436 245.32 436 246C434.804 246.247 433.607 246.495 432.375 246.75C428.305 247.762 425.33 249.401 422 252C419.571 256.856 420.176 263.688 421 269C426.471 284.228 437.432 293.142 451.461 300.246C453.943 301.334 456.413 302.189 459 303C460.707 303.557 460.707 303.557 462.449 304.125C476.558 308.295 496.052 310.907 509.722 304.536C512.24 303.157 514.624 301.608 517 300C518.485 299.505 518.485 299.505 520 299C521.009 297.234 521.009 297.234 522 295C522.66 294.03 523.32 293.061 524 292.062C528.795 284.719 528.828 277.504 528 269C526.135 262.358 522.954 256.423 519.113 250.719C517.918 248.874 516.951 246.979 516 245C532.273 256.167 544.709 270.948 549.598 290.375C550.093 293.606 550.064 296.736 550 300C540.481 304.35 531.119 308.235 521 311C519.784 311.341 518.568 311.682 517.315 312.034C506.393 314.946 496.08 315.642 484.812 315.5C483.962 315.495 483.112 315.49 482.236 315.485C464.957 315.369 449.174 313.023 432.621 308.015C408.277 301.188 388.511 302.965 364.868 311.383C362.93 312.023 360.985 312.528 359 313C359.329 312.512 359.657 312.025 359.996 311.523C361.674 309.022 363.338 306.512 365 304C365.7 302.948 366.4 301.896 367.121 300.812C380.47 280.57 387.915 261.162 391 237C369.972 244.382 342.028 254.967 330 275C329.387 275.881 329.387 275.881 328.762 276.781C324.933 282.991 325.158 289.931 326 297C329.851 305.442 337.001 308.69 345.195 311.984C347.463 312.805 349.649 313.482 352 314C345.25 329.954 322.99 340.364 307.941 346.613C299.707 349.669 289.83 353 281 353C280.99 352.239 280.981 351.479 280.972 350.696C280.917 347.192 280.834 343.69 280.75 340.187C280.736 338.992 280.721 337.796 280.707 336.564C280.426 326.259 278.277 317.764 272.5 309.125C271.933 308.261 271.365 307.397 270.781 306.508C267.537 301.55 267.537 301.55 263 298C263 297.34 263 296.68 263 296C261.515 295.505 261.515 295.505 260 295C253.261 288.402 249.885 280.85 247 272C245.131 280.463 244.129 288.933 243.232 297.547C242.213 306.669 240.566 315.504 237 324C235.827 320.481 236.556 318.689 237.502 315.203C238.31 311.63 238.278 308.118 238.273 304.469C238.294 302.836 238.314 301.203 238.336 299.57C238.358 297.048 238.375 294.525 238.381 292.003C238.464 270.944 242.518 252.482 258 237C259.853 236.927 261.708 236.916 263.562 236.937C264.574 236.946 265.586 236.955 266.629 236.965C267.802 236.982 267.802 236.982 269 237C268.87 237.603 268.739 238.206 268.605 238.828C268.181 241.284 267.901 243.507 268 246C270.977 249.502 273.583 250.334 278 251C291.62 251.76 302.732 250.414 314 242C315.465 240.506 316.902 238.984 318.312 237.437C323.365 232.116 329.061 230.04 336 228C337.174 227.636 338.349 227.273 339.558 226.898C354.27 223.341 374.402 223.838 388 231Z" fill="white"/>
<path d="M215 199C214.34 199.33 213.68 199.66 213 200C210.883 199.183 210.883 199.183 208.265 197.867C207.304 197.393 206.343 196.918 205.353 196.429C204.329 195.916 203.305 195.403 202.25 194.875C193.641 190.648 185.154 186.872 176 184C177.041 184.545 178.083 185.091 179.156 185.652C187.331 189.948 195.453 194.315 203.468 198.904C207.905 201.433 212.416 203.746 217 206C214.173 207.414 212.767 206.539 209.75 205.688C196.266 202.167 183.041 201.559 169.187 201.563C168.286 201.561 167.384 201.56 166.455 201.559C144.796 201.596 125.32 205.448 105 213C106.113 212.734 107.227 212.469 108.375 212.195C109.916 211.838 111.458 211.481 113 211.125C113.724 210.951 114.448 210.777 115.195 210.598C128.225 207.616 141.194 206.663 154.513 206.739C156.79 206.75 159.066 206.739 161.343 206.727C162.807 206.728 164.27 206.73 165.734 206.734C167.036 206.737 168.337 206.739 169.678 206.741C172.746 206.98 174.439 207.371 177 209C175.848 209.086 174.697 209.173 173.511 209.262C143.421 211.794 115.233 222.354 94.3121 244.813C87.2777 253.191 82.984 262.545 79.9996 273C79.6696 273 79.3396 273 78.9996 273C78.0248 260.572 83.4323 247.919 91.1402 238.34C93.3675 235.828 95.6571 233.404 97.9996 231C98.6222 230.327 99.2448 229.654 99.8863 228.961C103.592 225.047 107.196 222.451 112 220C95.23 222.891 79.7929 231.741 68.9996 245C61.8775 255.482 58.4688 264.414 58.8121 277.063C58.8256 278.024 58.8392 278.985 58.8531 279.975C58.8881 282.317 58.9371 284.658 58.9996 287C54.9705 282.971 54.736 276.406 54.6207 270.91C54.622 270.218 54.6233 269.526 54.6246 268.813C54.6226 267.719 54.6226 267.719 54.6207 266.604C54.7554 259.591 56.4504 253.544 58.9996 247C57.8857 248.66 56.784 250.329 55.6871 252C55.0722 252.928 54.4573 253.856 53.8238 254.813C49.6966 262.024 48.5225 268.227 48.3121 276.5C48.2779 277.418 48.2438 278.336 48.2086 279.281C48.1269 281.521 48.0575 283.76 47.9996 286C45.1574 283.158 45.6851 280.96 45.6187 277.069C45.6604 257.007 51.3083 240.751 65.6675 226.324C66.1071 225.887 66.5467 225.45 66.9996 225C54.5691 232.151 44.7682 239.678 36.9996 252C36.5046 251.01 36.5046 251.01 35.9996 250C42.5853 236.922 53.243 223.006 67.3668 217.746C68.2356 217.5 69.1044 217.254 69.9996 217C65.9432 217 63.0332 218.76 59.4996 220.563C58.7849 220.925 58.0702 221.287 57.3338 221.66C40.824 230.147 28.8142 239.743 20.9996 257C19.6938 253.073 20.6136 251.051 22.45 247.366C23.0005 246.319 23.0005 246.319 23.5621 245.25C23.9349 244.529 24.3076 243.808 24.6917 243.066C27.3742 237.976 30.1269 233.284 33.9996 229C34.755 228.153 35.5104 227.306 36.2886 226.434C59.7169 201.589 93.8368 193.29 126.944 191.874C130.039 191.792 133.134 191.733 136.23 191.684C137.346 191.663 138.463 191.642 139.613 191.621C143.138 191.556 146.662 191.497 150.187 191.438C152.594 191.394 155.001 191.351 157.408 191.307C163.272 191.2 169.136 191.098 175 191C173.727 190.195 172.454 189.392 171.18 188.59C170.47 188.143 169.761 187.695 169.031 187.235C149.288 175.235 122.032 172.673 99.8746 177.938C97.241 178.597 94.6216 179.295 91.9996 180C90.3363 180.35 88.6709 180.691 86.9996 181C118.423 152.31 186.933 177.061 215 199Z" fill="white"/>
<path d="M702 82C704.86 82.3092 706.537 82.5557 708.645 84.5781C710.461 87.8232 711.582 91.2174 712.688 94.75C712.912 95.4474 713.137 96.1448 713.369 96.8633C713.92 98.5733 714.461 100.286 715 102C715.745 102.111 716.49 102.222 717.258 102.336C721.5 103.363 724.341 105.558 727 109C727.527 114.696 724.911 117.801 721.5 122C719.377 124.831 718.238 127.698 717 131C715.969 127.731 716.036 125.14 716.438 121.75C716.539 120.858 716.641 119.966 716.746 119.047C716.83 118.371 716.914 117.696 717 117C714.411 122.992 713.528 127.812 713.625 134.312C713.613 135.11 713.602 135.907 713.59 136.729C713.425 140.992 713.425 140.992 715.447 144.51C715.959 145.002 716.472 145.494 717 146C717.938 148.83 718.772 151.63 719.562 154.5C722.963 166.099 728.293 176.94 735 187C735.539 190.718 735.543 194.282 735 198C732.875 200.438 732.875 200.438 730 202C725.324 204.863 722.919 207.37 720 212C716.978 214.015 716.083 214.337 712.625 214.438C711.875 214.477 711.125 214.517 710.352 214.559C705.702 213.454 703.419 209.648 700.938 205.809C699.645 203.559 698.353 201.309 697.062 199.059C694.995 195.993 692.997 194.128 690 192C690.375 189.562 690.375 189.562 691 187C691.99 186.505 691.99 186.505 693 186C693.988 177.567 691.851 171.892 687 165C685.191 162.953 683.345 161.074 681.32 159.242C680.885 158.832 680.449 158.422 680 158C680 157.67 680 157.34 680 157C688.333 157.137 693.305 160.207 700 165C699.965 163.759 699.93 162.517 699.895 161.238C699.866 159.596 699.839 157.954 699.812 156.312C699.787 155.496 699.762 154.679 699.736 153.838C699.676 148.89 700.126 146.174 703 142C704.043 136.118 702.667 132.227 700 127C699.459 123.677 699.193 120.36 699 117C698.526 117.825 698.051 118.65 697.562 119.5C697.047 120.325 696.531 121.15 696 122C695.67 122 695.34 122 695 122C694.925 121.325 694.85 120.649 694.773 119.953C694.16 114.766 694.16 114.766 691.531 110.445C689.725 109.229 689.725 109.229 687 108C687.299 104.865 688.006 103.995 690.398 101.844C691.381 101.07 692.363 100.297 693.375 99.5C699.338 94.3183 701.084 89.7302 702 82Z" fill="white"/>
<path d="M672.688 69.3752C673.412 69.5011 674.137 69.627 674.883 69.7568C676.606 70.0937 678.307 70.5371 680 71.0002C680.33 71.6602 680.66 72.3202 681 73.0002C674.567 73.6634 668.184 74.0924 661.719 74.2387C629.434 75.0784 606.365 89.4633 583.055 111.192C580.8 113.29 578.488 115.309 576.152 117.317C571.777 121.127 567.742 125.229 563.688 129.375C557.417 135.715 551.093 141.582 544 147C542.679 148.035 542.679 148.035 541.332 149.09C539.229 150.737 537.119 152.373 535 154C534.34 153.67 533.68 153.34 533 153C535.409 150.701 537.829 148.412 540.25 146.125C540.932 145.474 541.614 144.823 542.316 144.153C543.312 143.215 543.312 143.215 544.328 142.258C545.239 141.394 545.239 141.394 546.169 140.512C548.024 138.981 549.857 138.066 552 137C552.708 135.688 553.37 134.351 554 133C555.355 131.402 556.756 129.843 558.188 128.313C562.397 123.729 566.264 118.974 570 114C565.365 117.056 560.77 120.152 556.25 123.375C552.427 126.092 548.496 128.464 544.438 130.813C538.064 134.685 533.659 139.238 529 145C507.825 170.056 481.857 186.282 449 191C446.301 191.142 443.704 191.109 441 191C443.773 188.227 446.007 188.392 449.875 187.813C477.011 183.168 505.321 169.034 521.863 146.457C522.98 144.681 524.005 142.847 525 141C523.562 141.632 523.562 141.632 522.095 142.277C512.814 146.349 503.515 150.378 494.188 154.345C492.758 154.954 491.328 155.565 489.899 156.177C468.294 165.432 468.294 165.432 464 164C464.512 163.78 465.023 163.56 465.55 163.333C481.691 156.339 496.841 148.141 511.938 139.146C516.299 136.556 520.696 134.045 525.133 131.586C542.863 121.712 559.693 110.764 576.486 99.3786C606.566 78.9961 635.115 62.8442 672.688 69.3752Z" fill="white"/>
<path d="M555 85.9999C549.724 104.44 529.514 119.314 514 129C510.965 130.367 510.965 130.367 509 131C512.163 127.732 515.462 124.695 518.875 121.687C523.297 117.742 527.237 113.573 531 109C527.775 110.449 525.369 112.27 522.688 114.562C507.691 126.665 487.788 137.86 468 137C468 136.67 468 136.34 468 136C468.692 135.853 469.384 135.706 470.098 135.555C491.291 130.696 508.424 121.066 523 105C520.096 105.715 517.209 106.479 514.324 107.269C513.422 107.516 512.519 107.763 511.589 108.017C509.621 108.556 507.655 109.099 505.688 109.643C497.146 112 497.146 112 492.848 112.934C482.873 115.197 474.891 119.592 466.165 124.73C446.459 136.286 423.287 146.302 400.062 146.062C398.919 146.053 397.776 146.044 396.598 146.035C395.74 146.023 394.883 146.012 394 146C394 145.67 394 145.34 394 145C395.298 144.816 396.596 144.631 397.934 144.441C422.885 140.58 446.474 131.766 467 117C466.271 117.201 465.542 117.403 464.791 117.611C442.307 123.777 422.278 126.382 399 126C399 125.34 399 124.68 399 124C399.693 123.96 400.387 123.921 401.101 123.88C420.597 122.713 437.304 119.752 456 114C444.12 114 432.24 114 420 114C420 113.67 420 113.34 420 113C420.912 112.933 420.912 112.933 421.842 112.864C445.065 111.141 445.065 111.141 467.562 105.5C474.262 103.199 480.844 102.259 487.875 101.5C497.612 100.446 506.534 98.4557 515.881 95.6098C519.447 94.5835 523.066 93.8028 526.688 92.9999C533.594 91.4527 540.177 89.3639 546.828 86.953C549.77 86.0691 551.959 85.7941 555 85.9999Z" fill="white"/>
<path d="M590.387 207.391C599.456 214.628 606.116 223.071 612 233C608.096 233 606.992 231.69 603.937 229.312C595.015 222.682 583.45 216 572 216C572.655 216.45 573.31 216.9 573.984 217.363C579.459 221.222 584.607 225.249 589.562 229.75C590.074 230.209 590.587 230.669 591.114 231.142C593.721 233.552 595.687 235.675 597 239C594.423 237.987 591.873 236.943 589.344 235.816C579.722 231.574 570.185 229.441 559.822 227.931C546.611 225.989 535.965 223.349 527.551 212.055C524.551 206.855 524.566 201.879 525 196C548.141 190.009 570.877 193.137 590.387 207.391Z" fill="white"/>
<path d="M739 265C741.466 265.731 743.93 266.468 746.391 267.219C748.373 267.812 750.371 268.356 752.375 268.875C755.838 270.359 757.02 271.791 759 275C759.39 276.454 759.764 277.913 760.125 279.375C761.71 284.703 765.037 286.391 769.559 289.273C776.082 293.887 777.417 300.256 779.051 307.707C780.498 312.727 782.903 317.092 785.379 321.676C787.726 326.49 789 330.635 789 336C775.236 337.08 763.176 330.156 752.113 322.734C750.252 319.834 750.691 316.636 750.812 313.312C750.826 312.611 750.84 311.909 750.854 311.186C750.889 309.457 750.943 307.728 751 306C752.555 306.035 752.555 306.035 754.141 306.07C755.51 306.089 756.88 306.107 758.25 306.125C758.932 306.142 759.614 306.159 760.316 306.176C764.061 306.212 766.824 306.079 770 304C770.3 300.174 770.467 297.765 768.438 294.438C766.581 292.581 764.784 291.009 762.75 289.375C759.546 286.744 757.398 283.856 755.062 280.438C752.034 276.092 749.4 273.549 744.766 271.059C742.208 269.525 740.668 267.432 739 265Z" fill="white"/>
<path d="M117 237C117.99 237.33 118.98 237.66 120 238C119.039 238.727 119.039 238.727 118.058 239.469C112.393 243.859 107.223 248.178 103 254C102.407 254.815 101.814 255.629 101.203 256.469C95.5904 265.634 96.2506 275.695 97.9997 286C98.9356 288.942 98.9356 288.942 99.9997 291C100.026 290.201 100.051 289.402 100.078 288.578C100.688 276.769 103.058 267 111 258C111 261.263 110.03 263.251 108.734 266.191C105.768 273.497 105.97 283.569 108.187 291.098C111.116 297.955 116.56 303.361 123 307C125.692 307.956 128.173 308.495 131 309C131 309.33 131 309.66 131 310C124.427 310.365 119.205 309.136 113 307C113.577 307.422 114.155 307.843 114.75 308.277C115.492 308.825 116.235 309.373 117 309.938C118.113 310.755 118.113 310.755 119.25 311.59C119.827 312.055 120.405 312.521 121 313C121 313.33 121 313.66 121 314C113.917 314.421 108.878 311.751 103 308C100.357 305.53 98.1132 302.932 95.9997 300C98.8072 306.397 101.215 310.964 107 315C104 316 104 316 101.984 315.066C94.1349 309.783 87.7615 304.31 85.4372 294.824C83.2432 280.661 86.069 268.214 94.1716 256.418C98.7554 250.355 104.159 245.979 110.25 241.5C111.172 240.812 111.172 240.812 112.113 240.111C113.685 238.99 115.339 237.985 117 237Z" fill="white"/>
<path d="M205 345C205.495 345.99 205.495 345.99 206 347C211.939 348.836 217.808 349.611 224 350C224.831 350.054 225.663 350.108 226.52 350.164C233.076 350.38 239.142 349.383 245.518 347.979C248.969 347.245 251.646 346.705 255 348C253.926 348.326 252.852 348.652 251.746 348.988C250.31 349.429 248.874 349.871 247.438 350.312C246.733 350.526 246.029 350.739 245.303 350.959C240.724 352.373 236.274 353.816 232 356C231.505 357.732 231.505 357.732 231 359.5C230 363 230 363 227.312 364.875C222.321 366.623 216.921 366.378 211.691 366.617C206.89 367.115 203.142 368.587 199 371C199 370.01 199 369.02 199 368C193.864 371.412 191.528 375.735 188.625 381C187.662 382.708 186.698 384.417 185.734 386.125C185.27 386.956 184.805 387.788 184.326 388.645C182.032 392.719 179.63 396.729 177.242 400.75C175.881 403.055 175.881 403.055 175 406C180.025 403.627 181.56 400.789 184 396C184.66 396 185.32 396 186 396C182.815 404.439 178.802 412.025 170.562 416.25C167.556 417.13 165.117 417.277 162 417C159.64 414.64 159.509 413.221 159 410C160.66 409.609 162.32 409.219 163.98 408.828C169.651 406.503 172.603 402.061 175.562 396.938C175.983 396.219 176.404 395.5 176.837 394.759C181.403 386.695 185.07 378.219 188.713 369.707C197.164 350.028 197.164 350.028 202 346C202.99 345.67 203.98 345.34 205 345Z" fill="white"/>
<path d="M709 310C713.712 310.513 717.914 311.277 721.438 314.625C724.674 318.861 724.796 323.684 725.25 328.808C725.99 336.537 728.822 342.887 732.438 349.715C735.131 354.803 736.74 358.202 736 364C735.67 364.33 735.34 364.66 735 365C734.843 366.706 734.749 368.417 734.684 370.129C734.621 371.681 734.621 371.681 734.557 373.264C734.517 374.352 734.478 375.441 734.438 376.562C734.373 378.201 734.373 378.201 734.307 379.873C734.2 382.582 734.098 385.291 734 388C727.814 386.679 723.646 382.079 719 378C718.478 377.552 717.955 377.105 717.417 376.644C708.57 368.977 708.57 368.977 707.242 364.371C707.19 362.032 707.273 360.221 708 358C708.66 357.34 709.32 356.68 710 356C713.532 356.321 716.634 356.878 720 358C721.394 358.067 722.792 358.085 724.188 358.062C725.446 358.042 726.704 358.021 728 358C728.454 352.73 726.952 349.16 724.5 344.625C724.166 343.984 723.832 343.344 723.488 342.684C722.67 341.117 721.836 339.557 721 338C720.062 338.039 719.123 338.077 718.156 338.117C715 338 715 338 712.5 336.125C709.659 332.93 707.677 329.18 705.535 325.5C701.942 319.648 697.886 315.503 692 312C696.135 310.622 697.686 311.963 701.562 313.812C702.719 314.355 703.875 314.898 705.066 315.457C709.578 317.83 709.578 317.83 710.676 320.875C710.991 321.927 710.991 321.927 711.312 323C712.522 326.484 712.522 326.484 715.688 328.5C716.451 328.665 717.214 328.83 718 329C717.281 321.836 715.538 317.646 710.461 312.496C709 311 709 311 709 310Z" fill="white"/>
<path d="M599 38C638.328 37.0954 638.328 37.0954 649 42C650.41 44.1406 650.41 44.1406 651 46C644.749 45.4791 638.953 44.341 632.895 42.7188C626.841 41.2156 621.083 40.7905 614.875 40.75C613.678 40.7191 613.678 40.7191 612.457 40.6875C611.685 40.6824 610.913 40.6772 610.117 40.6719C609.422 40.6625 608.727 40.6532 608.011 40.6436C605.407 41.1051 603.991 42.3095 602 44C602.653 44.0041 603.305 44.0082 603.978 44.0125C619.014 44.1771 632.594 45.638 647 50C647 50.66 647 51.32 647 52C637 50 637 50 634.931 49.5054C627.437 47.8076 620.037 47.5644 612.375 47.375C611.085 47.3363 609.794 47.2977 608.465 47.2578C605.31 47.1644 602.155 47.0786 599 47C599 46.67 599 46.34 599 46C585.269 46.4852 571.74 49.1416 558.969 54.2656C557 55 557 55 555 55C555 55.99 555 56.98 555 58C561.737 56.7581 561.737 56.7581 568.312 54.875C571.044 53.9857 573.149 53.8323 576 54C573.347 56.6532 570.468 57.1567 566.938 58.0625C565.913 58.3335 565.913 58.3335 564.867 58.6099C561.398 59.4977 558.075 60.1897 554.5 60.375C550.495 60.6887 547.468 62.0445 543.812 63.6875C536.172 67.0608 528.239 68.4888 520.062 70C502.951 72.3219 502.951 72.3219 488 80C489.417 80.0273 490.833 80.0465 492.25 80.0625C493.433 80.0799 493.433 80.0799 494.641 80.0977C496.957 80.0829 496.957 80.0829 498.969 79.5C501.449 78.8895 503.699 78.904 506.25 78.9375C507.142 78.9465 508.034 78.9556 508.953 78.9649C509.629 78.9765 510.304 78.9881 511 79C508.418 81.5824 507.282 81.2805 503.688 81.3867C502.611 81.4389 501.535 81.4911 500.426 81.5449C498.174 81.6387 495.921 81.7147 493.668 81.7715C486.288 82.1698 482.015 83.707 476.207 88.2781C464.931 97.0754 450.725 98.3872 437 98C437 97.67 437 97.34 437 97C438.111 96.8299 439.222 96.6597 440.367 96.4844C441.87 96.2402 443.372 95.9954 444.875 95.75C445.602 95.6404 446.329 95.5309 447.078 95.418C456.967 93.7698 464.972 89.6961 473.25 84.1875C488.569 74.3116 502.806 67.9393 521 66.125C531.12 65.0161 541.518 61.7754 550 56C550.33 55.34 550.66 54.68 551 54C550.01 53.67 549.02 53.34 548 53C548.799 52.7693 549.598 52.5385 550.422 52.3008C556.015 50.6399 561.303 48.9106 566.562 46.375C574.301 42.9977 582.505 42.7878 590.823 42.1895C593.58 41.9496 596.282 41.5135 599 41C599 40.01 599 39.02 599 38Z" fill="white"/>
<path d="M262 364C262.66 364 263.32 364 264 364C264 364.66 264 365.32 264 366C261.44 367.462 258.877 368.92 256.312 370.375C255.231 370.994 255.231 370.994 254.127 371.625C246.492 375.948 241.149 377.24 232.277 377.363C228.886 377.717 228.886 377.717 226.707 380.18C224.987 383.021 223.81 385.669 222.75 388.812C222.415 389.788 222.08 390.764 221.734 391.77C221.492 392.506 221.25 393.242 221 394C221.757 393.509 222.513 393.018 223.293 392.512C226.449 390.749 228.442 390.752 232 391C230.679 393.982 229.316 395.797 226.875 397.938C220.055 404.587 215.718 413.118 212.062 421.812C209.615 427.441 206.735 430.581 201.758 434.121C199.666 435.966 199.666 435.966 199.742 439.223C199.827 440.139 199.912 441.056 200 442C199.34 442 198.68 442 198 442C196.711 440.68 196.711 440.68 195.375 438.875C194.929 438.295 194.483 437.715 194.023 437.117C192.608 434.19 192.564 432.211 193 429C194.758 427.016 194.758 427.016 197.125 425.25C207.608 416.577 212.159 403.189 214 390C214.133 388.084 214.258 386.167 214.375 384.25C214.839 378.482 216.853 375.386 220.687 371.125C224.298 369.369 228.057 369.441 232 370C232.99 370.66 233.98 371.32 235 372C244.54 372.737 252.673 369.181 261 365C261.33 364.67 261.66 364.34 262 364Z" fill="white"/>
<path d="M184.121 443.527C186 444 186 444 188.062 445.25C189.393 447.734 188.604 449.314 188 452C188.99 453.485 188.99 453.485 190 455C194.987 454.54 197.494 453.204 201.25 449.937C205.817 446 205.817 446 208 446C206.923 448.423 205.812 450.221 204.086 452.258C201.881 455.156 200.68 457.799 199.375 461.187C197.203 466.797 197.203 466.797 195 469C193.783 469 192.566 469 191.312 469C185.391 469.488 181.273 472.78 176.581 476.142C172.223 479.264 167.849 481.701 163 484C162.876 483.03 162.752 482.061 162.625 481.062C162.419 480.052 162.213 479.041 162 478C161.34 477.67 160.68 477.34 160 477C160.99 476.505 160.99 476.505 162 476C162.581 473.828 163.088 471.635 163.562 469.437C165.061 463.168 167.38 457.788 170.562 452.187C171.145 451.157 171.145 451.157 171.739 450.105C175.242 444.154 177.472 442.462 184.121 443.527Z" fill="white"/>
<path d="M637 113C637.66 113 638.32 113 639 113C639.11 114.267 639.219 115.534 639.332 116.84C639.492 118.539 639.652 120.238 639.812 121.938C639.883 122.768 639.953 123.599 640.025 124.455C640.933 133.787 643.174 142.257 650 149C652.656 150.906 655.376 152.6 658.184 154.273C662.389 156.852 666.171 159.901 670 163C670.825 163.626 671.65 164.253 672.5 164.898C675.076 167.064 677.048 169.294 679.125 171.938C679.788 172.772 680.45 173.606 681.133 174.465C686.455 181.691 686.455 181.691 686 187C683.061 184.15 680.299 181.227 677.625 178.125C668.986 168.241 660.978 162.201 648.438 158C636.668 154.013 629.443 149 623 138C622.276 136.02 621.592 134.023 621 132C621.652 131.383 622.305 130.765 622.977 130.129C627.983 125.277 632.271 120.62 635.844 114.617C636.225 114.084 636.607 113.55 637 113Z" fill="white"/>
<path d="M559 288C561.021 290.628 562.82 293.307 564.562 296.125C567.726 300.938 571.594 304.723 575.742 308.691C577.643 310.635 578.937 312.28 580.25 314.625C581.814 317.282 581.814 317.282 584.875 317.688C588.317 316.93 589.605 315.63 592.133 313.293C595.314 311.09 598.937 310.626 602.668 309.793C618.216 306.093 632.299 298.563 645 289C645.99 289.495 645.99 289.495 647 290C634.913 301.603 622.145 309.765 607.109 317.132C600.773 320.298 595.358 323.795 589.95 328.379C587.321 330.565 586.153 330.98 582.688 331.438C579 331 579 331 576.617 328.605C573.32 324.361 570.896 319.637 568.438 314.875C567.954 313.944 567.47 313.012 566.971 312.053C559 296.432 559 296.432 559 288Z" fill="white"/>
<path d="M692 230C698.342 232.466 701.393 236.743 705.512 242.027C709.556 246.859 714.233 250.892 719 255C716 256 716 256 713.398 254.777C712.401 254.17 711.403 253.563 710.375 252.937C709.308 252.292 708.24 251.646 707.141 250.98C704.439 249.276 701.772 247.537 699.125 245.75C691.963 240.967 686.744 238.546 678 240C672.307 242.105 667.067 245.311 661.812 248.312C659.689 249.5 657.563 250.681 655.434 251.858C654.119 252.587 652.808 253.323 651.503 254.068C644.508 258.004 637.994 260.275 630 260.937C622.179 261.762 616.815 263.488 610.875 268.625C606.151 272.527 602.033 273.287 596 273C597 271 597 271 598.934 270.316C599.76 270.068 600.586 269.819 601.438 269.562C607.428 267.317 610.621 263.452 614.578 258.559C619.839 253 625.521 252.467 632.75 251.687C646.968 249.891 660.083 246.159 672 238C673.997 236.725 675.997 235.454 678 234.187C678.908 233.603 679.815 233.02 680.75 232.418C684.764 229.888 687.193 229.606 692 230Z" fill="white"/>
<path d="M148 426C153.94 426.99 153.94 426.99 160 428C160 428.66 160 429.32 160 430C157.044 431.478 154.258 431.06 151 431C149.85 437.103 149.446 441.857 152.61 447.371C154.988 450.157 157.541 450.936 161 452C153.906 459.781 144.416 465.948 133.782 467.277C131.875 467.312 131.875 467.312 129 467C127.355 465.355 127.75 463.519 127.688 461.25C127.726 453.901 129.71 446.581 133 440C131.68 439.67 130.36 439.34 129 439C129.722 438.752 130.444 438.505 131.188 438.25C134.098 437.107 134.098 437.107 136.5 434.938C139.119 432.908 140.754 432.371 144 432C144 434.97 144 437.94 144 441C144.66 441 145.32 441 146 441C146.091 439.627 146.091 439.627 146.184 438.227C146.268 437.038 146.352 435.85 146.438 434.625C146.519 433.442 146.6 432.258 146.684 431.039C147 428 147 428 148 426Z" fill="white"/>
<path d="M226 220C226.495 220.99 226.495 220.99 227 222C222.05 222 217.1 222 212 222C212 222.66 212 223.32 212 224C213.715 224.074 213.715 224.074 215.465 224.149C216.956 224.224 218.447 224.299 219.938 224.375C221.07 224.422 221.07 224.422 222.225 224.469C224.155 224.573 226.079 224.779 228 225C228.495 225.99 228.495 225.99 229 227C228.231 227.1 227.463 227.201 226.671 227.304C193.87 231.064 193.87 231.064 163 242C162.197 242.4 161.394 242.799 160.566 243.211C159.791 243.602 159.791 243.602 159 244C159 243.34 159 242.68 159 242C167.194 234.844 177.926 229.875 188 226C172.778 224.945 159.432 229.022 147 238C143.814 240.846 140.853 243.823 138 247C138 243.35 138.573 242.97 141.062 240.438C163.161 219.386 196.528 212.517 226 220Z" fill="white"/>
<path d="M349 332C350.954 336.971 348.349 341.081 346.461 345.738C336.96 366.95 316.552 374.456 296.71 383.722C295.151 384.457 293.604 385.222 292.1 386.066C289.771 387.102 288.227 387.242 285.69 387.227C284.43 387.227 284.43 387.227 283.143 387.227C282.245 387.216 281.347 387.206 280.422 387.195C279.495 387.192 278.569 387.19 277.614 387.187C274.659 387.176 271.705 387.15 268.75 387.125C266.745 387.115 264.74 387.106 262.734 387.098C257.823 387.076 252.911 387.041 248 387C248 386.34 248 385.68 248 385C254.024 383.461 259.665 382.759 265.868 382.469C276.525 381.946 285.022 380.568 294.52 375.723C297.822 374.088 300.894 373.035 304.438 372.062C320.846 367.275 334.148 360.022 343 345C345.142 340.725 347.119 336.396 349 332Z" fill="white"/>
<path d="M707 257C721.585 259.186 730.116 265.188 740.703 274.949C742.928 277.012 742.928 277.012 745.27 278.613C747 280 747 280 747.438 282.5C747 285 747 285 745.875 286.812C743.104 288.567 741.223 288.387 738 288C733.891 286.141 731.637 283.614 729 280C728.67 281.98 728.34 283.96 728 286C727.381 285.361 726.762 284.721 726.125 284.062C725.088 283.037 724.045 282.017 723 281C722.295 280.31 721.59 279.621 720.863 278.91C714.188 272.621 706.799 266.933 698 264C698 263.34 698 262.68 698 262C702.889 262.703 707.173 264.593 711.688 266.5C712.459 266.821 713.231 267.142 714.025 267.473C719.598 269.799 719.598 269.799 722 271C722 270.34 722 269.68 722 269C721.459 268.752 720.917 268.505 720.359 268.25C717.472 266.72 714.902 264.908 712.25 263C711.265 262.299 710.28 261.598 709.266 260.875C708.518 260.256 707.77 259.637 707 259C707 258.34 707 257.68 707 257Z" fill="white"/>
<path d="M242 227C240.364 231.772 238.552 235.642 233.937 238.098C229.496 239.97 225.072 241.257 220.375 242.312C215.219 243.535 210.479 245.287 205.625 247.375C204.959 247.655 204.293 247.935 203.607 248.224C199.078 250.233 195.681 252.683 192 256C191.34 255.67 190.68 255.34 190 255C191.243 253.702 192.495 252.412 193.75 251.125C194.446 250.406 195.142 249.686 195.859 248.945C197.851 247.135 199.543 246.052 202 245C192.617 247.386 182.325 252.785 176.812 261.062C174.8 264.88 173.829 268.781 173 273C172.67 273 172.34 273 172 273C171.338 265.85 172.926 260.927 177 255C190.196 240.21 206.301 235.291 225.025 231.895C230.252 230.904 237.075 227 242 227Z" fill="white"/>
<path d="M723 37C722.556 48.478 720.239 57.0908 712.5 65.6875C712.025 66.2172 711.55 66.7469 711.061 67.2927C709.656 68.7617 709.656 68.7617 707 71C702.114 71 701.161 69.8954 697.5 66.8125C696.092 65.6465 696.092 65.6465 694.656 64.457C692.137 62.1266 690.061 59.737 688 57C688.577 57.3094 689.155 57.6188 689.75 57.9375C693.371 59.6474 695.123 60.2922 699 59C699.33 58.01 699.66 57.02 700 56C701.615 54.5642 703.292 53.1986 705 51.875C709.743 48.1032 714.029 44.1184 718.223 39.75C721.016 37 721.016 37 723 37Z" fill="white"/>
<path d="M709 310C715.31 310.687 718.882 312.076 722.906 317.051C725.341 321.39 725.112 325.947 725.062 330.812C725.053 331.974 725.044 333.135 725.035 334.332C725.024 335.212 725.012 336.093 725 337C724.34 337 723.68 337 723 337C722.67 337.66 722.34 338.32 722 339C721.01 338.67 720.02 338.34 719 338C718.216 337.917 717.433 337.835 716.625 337.75C712.309 336.517 710.014 333.742 707.785 329.914C706.96 328.369 706.136 326.823 705.312 325.277C701.954 319.45 697.741 315.417 692 312C696.135 310.622 697.686 311.963 701.562 313.812C702.719 314.355 703.875 314.898 705.066 315.457C709.578 317.83 709.578 317.83 710.676 320.875C710.991 321.927 710.991 321.927 711.312 323C712.522 326.484 712.522 326.484 715.688 328.5C716.451 328.665 717.214 328.83 718 329C717.281 321.836 715.538 317.646 710.461 312.496C709 311 709 311 709 310Z" fill="white"/>
<path d="M122.625 182.812C124.245 182.813 124.245 182.813 125.898 182.814C131.668 182.846 137.319 182.94 143 184C143.495 184.99 143.495 184.99 144 186C143.165 186.022 143.165 186.022 142.314 186.044C112.035 186.92 75.6947 190.422 51 210C50.34 209.67 49.68 209.34 49 209C64.2166 197.602 79.3032 189.46 97.9497 185.442C99.3922 185.131 100.83 184.8 102.265 184.454C109.091 182.905 115.645 182.733 122.625 182.812Z" fill="white"/>
<path d="M646 181C648.263 183.263 648.288 183.897 648.75 186.938C650.749 196.43 656.481 204.018 662.485 211.409C666.087 215.884 668.708 219.882 669.5 225.625C669 229 669 229 666.625 231.438C664 233 664 233 662 233C662.035 232.192 662.07 231.384 662.106 230.551C662.133 229.482 662.16 228.414 662.188 227.312C662.223 226.257 662.257 225.201 662.293 224.113C661.963 220.609 661.086 218.803 659 216C658.34 215.67 657.68 215.34 657 215C657.041 216.237 657.083 217.475 657.125 218.75C657.238 222.124 656.57 224.035 655 227C654.907 225.703 654.815 224.406 654.719 223.07C654.147 217.927 652.521 213.606 650.5 208.875C647.314 201.337 645.845 194.832 645.938 186.562C645.947 185.512 645.956 184.461 645.965 183.379C645.977 182.594 645.988 181.809 646 181Z" fill="white"/>
<path d="M683 257C680.179 259.243 677.4 260.89 674.141 262.418C673.198 262.864 672.255 263.309 671.283 263.768C670.282 264.237 669.281 264.705 668.25 265.187C661.312 268.464 654.4 271.769 647.562 275.25C642.142 277.988 636.67 280.586 631.125 283.062C630.44 283.374 629.755 283.686 629.049 284.007C627.392 284.734 625.698 285.375 624 286C623.34 285.67 622.68 285.34 622 285C627.798 281.226 633.598 277.456 639.4 273.689C641.68 272.208 643.957 270.724 646.234 269.238C647.448 268.45 648.661 267.662 649.875 266.875C650.924 266.192 651.974 265.509 653.055 264.805C662.255 259.167 672.18 256.363 683 257Z" fill="white"/>
<path d="M165 168C188.344 167.272 210.132 181.098 227 196C231.344 200.089 235.51 204.147 239 209C238.505 209.99 238.505 209.99 238 211C237.441 210.478 236.881 209.956 236.305 209.418C229.171 202.869 221.701 196.865 214 191C213.157 190.349 212.314 189.698 211.445 189.028C197.739 178.898 181.579 172.43 165 169C165 168.67 165 168.34 165 168Z" fill="white"/>
<path d="M531.812 52.9374C532.505 52.9419 533.198 52.9464 533.912 52.9511C535.608 52.9628 537.304 52.9807 539 52.9999C539 53.6599 539 54.3199 539 54.9999C536.085 55.9717 533.45 56.2735 530.405 56.5429C516.579 57.8339 505.741 62.4188 493.828 69.2555C483.243 75.2522 472.368 79.9475 460 79.9999C462.676 77.3241 464.871 77.2478 468.562 76.4374C479.734 73.7249 489.51 67.9047 499.125 61.7499C508.828 55.7543 520.498 52.7967 531.812 52.9374Z" fill="white"/>
<path d="M692 22C693 24 693 24 692.476 25.8203C692.055 26.9611 692.055 26.9611 691.625 28.125C689.326 35.2616 689.267 42.5651 689 50C687.343 49.1249 685.7 48.2241 684.062 47.3125C683.146 46.8136 682.229 46.3148 681.285 45.8008C679 44 679 44 678.031 41.5977C677.971 36.5931 681.074 32.8697 684 29C686.52 26.4574 689.16 24.1768 692 22Z" fill="white"/>
<path d="M184 396C184.66 396 185.32 396 186 396C182.815 404.439 178.802 412.025 170.562 416.25C167.556 417.13 165.117 417.277 162 417C159.64 414.64 159.509 413.221 159 410C159.843 409.818 160.686 409.636 161.555 409.449C163.198 409.072 163.198 409.072 164.875 408.688C166.511 408.322 166.511 408.322 168.18 407.949C171.294 407.221 171.294 407.221 173 404C173.66 404 174.32 404 175 404C175 404.66 175 405.32 175 406C180.025 403.627 181.56 400.789 184 396Z" fill="white"/>
<path d="M532 72.9998C519.698 86.2112 496.509 95.7965 479 98.9998C476.667 99.0577 474.332 99.0742 472 98.9998C472 98.6698 472 98.3398 472 97.9998C473.051 97.7575 474.101 97.5151 475.184 97.2654C482.804 95.4654 490.027 93.6536 497 89.9998C498.062 89.461 499.124 88.9221 500.219 88.367C507.045 84.9316 507.045 84.9316 513.125 80.3748C518.47 75.9591 524.949 72.5535 532 72.9998Z" fill="white"/>
<path d="M512 139C512.495 139.99 512.495 139.99 513 141C511.68 142.32 510.36 143.64 509 145C510.32 145.33 511.64 145.66 513 146C487.003 157.828 487.003 157.828 475 162.312C473.837 162.755 473.837 162.755 472.651 163.207C467.372 165.124 467.372 165.124 464 164C464.512 163.78 465.023 163.559 465.55 163.333C481.711 156.331 497.018 148.26 512 139Z" fill="white"/>
<path d="M197 392C197.33 392.66 197.66 393.32 198 394C196.855 396.609 196.855 396.609 195.188 399.75C192.284 405.239 189.904 410.225 189.688 416.5C189.209 421.462 187.728 423.696 184 427C181.188 427.375 181.188 427.375 179 427C180.228 419.833 182.554 414.564 186.312 408.375C186.786 407.568 187.26 406.761 187.748 405.93C190.61 401.106 193.676 396.517 197 392Z" fill="white"/>
<path d="M739 265C741.466 265.731 743.93 266.468 746.391 267.219C748.373 267.812 750.371 268.356 752.375 268.875C755.838 270.359 757.02 271.791 759 275C759.461 276.493 759.897 277.994 760.312 279.5C761.397 283.175 762.469 284.725 765.688 286.812C767.327 287.895 767.327 287.895 769 289C769 290.32 769 291.64 769 293C761.955 291.292 757.986 284.432 754.062 278.812C751.448 275.224 748.671 273.324 744.836 271.164C742.287 269.548 740.692 267.468 739 265Z" fill="white"/>
<path d="M175 183C187.552 186.028 199.551 192.05 210.957 197.992C213.259 199.128 215.607 200.073 218 201C217.01 201.33 216.02 201.66 215 202C215 202.99 215 203.98 215 205C209.755 203.486 205.335 201.122 200.625 198.438C199.848 198 199.071 197.563 198.27 197.112C196.655 196.202 195.041 195.29 193.428 194.375C191.043 193.025 188.655 191.681 186.266 190.34C182.508 188.231 178.753 186.117 175 184C175 183.67 175 183.34 175 183Z" fill="white"/>
<path d="M611.438 52.9375C612.455 52.942 613.473 52.9466 614.521 52.9512C617.014 52.9629 619.507 52.9793 622 53C622 53.33 622 53.66 622 54C621.408 54.0344 620.816 54.0688 620.206 54.1043C592.778 55.8086 567.982 63.1456 543.82 76.25C543.22 76.4975 542.619 76.745 542 77C541.34 76.67 540.68 76.34 540 76C545.332 72.4844 550.701 69.5899 556.562 67.0625C557.342 66.7226 558.121 66.3827 558.924 66.0325C561.279 65.0119 563.638 64.0038 566 63C567.038 62.5558 567.038 62.5558 568.096 62.1026C582.453 55.9957 595.824 52.8055 611.438 52.9375Z" fill="white"/>
<path d="M713 146C714.32 146 715.64 146 717 146C717.983 149.061 718.961 152.124 719.937 155.188C720.215 156.052 720.493 156.916 720.779 157.807C721.046 158.648 721.314 159.489 721.589 160.355C721.835 161.125 722.082 161.895 722.335 162.688C723.031 165.108 723.538 167.526 724 170C723.01 170 722.02 170 721 170C718.773 167.699 718.773 167.699 716.375 164.688C715.578 163.701 714.781 162.715 713.96 161.699C710.601 157.075 710.737 153.512 711 148C711.66 147.34 712.32 146.68 713 146Z" fill="white"/>
<path d="M92 237C92.33 237.99 92.66 238.98 93 240C93.99 240.33 94.98 240.66 96 241C94.5886 244.095 92.7937 246.818 90.8768 249.621C85.8127 257.091 82.613 264.36 80 273C79.67 273 79.34 273 79 273C77.9742 259.92 84.1058 247.143 92 237Z" fill="white"/>
<path d="M246 236C238.583 242.933 231.372 246.519 221.5 248.937C215.557 250.399 210.987 252.369 205.953 255.828C204 257 204 257 201 257C206.83 251.595 212.479 248.052 219.95 245.306C225.986 243.082 231.712 240.347 237.453 237.451C242.678 234.893 242.678 234.893 246 236Z" fill="white"/>
<path d="M141 204C143.855 204.951 145.909 205.19 148.887 205.316C149.825 205.358 150.762 205.4 151.729 205.443C152.705 205.482 153.681 205.522 154.688 205.562C156.17 205.627 156.17 205.627 157.682 205.693C160.121 205.799 162.56 205.901 165 206C165 206.33 165 206.66 165 207C163.991 207.022 163.991 207.022 162.962 207.044C143.004 207.523 123.362 208.849 104 214C106.678 210.549 110.29 209.685 114.312 208.5C115.017 208.287 115.722 208.074 116.448 207.855C135.755 202.153 135.755 202.153 141 204Z" fill="white"/>
<path d="M551.438 40.8127C552.15 40.8004 552.862 40.7882 553.596 40.7756C558.705 40.7616 563.086 41.5984 568 43.0002C568 43.3302 568 43.6602 568 44.0002C566.855 43.9985 566.855 43.9985 565.687 43.9968C549.166 44.0537 534.522 45.1597 518.786 50.5788C517 51.0002 517 51.0002 515 50.0002C526.632 43.6167 538.191 40.8246 551.438 40.8127Z" fill="white"/>
<path d="M184 220C183.34 220.99 182.68 221.98 182 223C182.66 223.66 183.32 224.32 184 225C182.71 225.13 182.71 225.13 181.395 225.262C164.077 227.32 149.805 233.977 138 247C138 243.35 138.573 242.97 141.062 240.438C152.034 229.985 168.212 219.064 184 220Z" fill="white"/>
<path d="M658 313C658.993 313.312 659.985 313.624 661.008 313.945C664.92 315.065 668.835 315.492 672.875 315.875C682.359 316.942 690.597 319.527 697 327C697.938 329.875 697.938 329.875 698 332C697.597 331.604 697.194 331.208 696.779 330.8C692.232 326.589 688.089 324.552 682.188 322.812C681.396 322.563 680.604 322.314 679.788 322.057C675.605 320.749 671.398 319.53 667.188 318.312C663.775 317.317 660.899 316.126 658 314C658 313.67 658 313.34 658 313Z" fill="white"/>
<path d="M691 194C696.404 198.585 699.973 204.635 703 211C702.67 211.66 702.34 212.32 702 213C698.529 213.51 696.875 212.939 693.688 211.375C691.158 209.169 690.996 207.961 690.621 204.551C690.625 201.015 690.742 197.526 691 194Z" fill="white"/>
<path d="M219 181C232.925 186.047 246.631 197.549 253 211C252.67 211.66 252.34 212.32 252 213C251.582 212.552 251.165 212.104 250.734 211.642C248.803 209.573 246.87 207.505 244.938 205.438C243.952 204.381 243.952 204.381 242.947 203.303C234.125 193.776 234.125 193.776 224.062 185.625C222.36 184.438 220.667 183.236 219 182C219 181.67 219 181.34 219 181Z" fill="white"/>
<path d="M89 194C88.01 195.485 88.01 195.485 87 197C88.32 197.33 89.64 197.66 91 198C89.9984 198.266 88.9968 198.531 87.9648 198.805C86.6224 199.162 85.2799 199.518 83.9375 199.875C82.9523 200.136 82.9523 200.136 81.9473 200.402C77.6171 201.554 73.305 202.757 69 204C68.01 203.01 67.02 202.02 66 201C69.4664 198.689 73.0693 197.284 76.9375 195.813C77.6536 195.527 78.3696 195.242 79.1074 194.947C82.8619 193.517 85.1685 192.758 89 194Z" fill="white"/>
<path d="M681 287C681.681 287.681 682.361 288.361 683.062 289.062C683.759 289.751 683.759 289.751 684.469 290.453C685.49 291.485 686.49 292.537 687.469 293.609C692.614 299.108 698.66 302.992 705 307C702 308 702 308 698.488 306.41C697.088 305.642 695.697 304.859 694.312 304.062C693.595 303.654 692.878 303.246 692.139 302.826C686.722 299.643 681.748 296.141 678 291C678 290.34 678 289.68 678 289C678.99 289 679.98 289 681 289C681 288.34 681 287.68 681 287Z" fill="white"/>
<path d="M654 29C654.619 29.66 655.238 30.32 655.875 31C661.339 36.4332 667.374 41.1767 674.062 45C679.323 48.0178 683.621 51.8323 688 56C684.225 56 682.872 54.8258 679.75 52.75C676.693 50.7389 673.695 48.789 670.438 47.125C663.817 43.422 657.478 37.7645 654 31C654 30.34 654 29.68 654 29Z" fill="white"/>
<path d="M187 379C187.66 379.33 188.32 379.66 189 380C187.421 382.877 185.836 385.751 184.25 388.625C183.807 389.433 183.363 390.241 182.906 391.074C175.654 404.192 175.654 404.192 171 408C168.25 408.75 168.25 408.75 166 409C166.804 408.154 167.609 407.309 168.438 406.438C171.636 402.714 174.166 398.695 176.688 394.5C177.068 393.872 177.448 393.243 177.84 392.595C179.676 389.49 181.263 386.455 182.582 383.094C183.05 382.073 183.518 381.052 184 380C184.99 379.67 185.98 379.34 187 379Z" fill="white"/>
<path d="M277 383C277 383.66 277 384.32 277 385C281.95 384.67 286.9 384.34 292 384C291.34 384.99 290.68 385.98 290 387C288.165 387.361 288.165 387.361 285.917 387.341C285.077 387.34 284.236 387.34 283.37 387.34C282.461 387.324 281.553 387.309 280.617 387.293C279.688 387.289 278.758 387.284 277.801 387.28C274.825 387.263 271.85 387.226 268.875 387.188C266.861 387.172 264.846 387.159 262.832 387.146C257.888 387.113 252.944 387.062 248 387C248 386.34 248 385.68 248 385C251.148 384.092 254.082 383.812 257.352 383.684C258.367 383.642 259.383 383.6 260.43 383.557C261.484 383.517 262.539 383.478 263.625 383.438C264.687 383.394 265.749 383.351 266.844 383.307C274.495 383 274.495 383 277 383Z" fill="white"/>
<path d="M692 311C695.879 311.629 699.122 312.798 702.688 314.438C704.116 315.085 704.116 315.085 705.574 315.746C708 317 708 317 710 319C710.4 321.323 710.74 323.657 711 326C710.01 326 709.02 326 708 326C707.67 326.66 707.34 327.32 707 328C706.671 327.432 706.343 326.863 706.004 326.277C702.603 320.756 699.037 317.076 693.758 313.312C693.178 312.879 692.598 312.446 692 312C692 311.67 692 311.34 692 311Z" fill="white"/>
<path d="M238 234C238.99 234.99 239.98 235.98 241 237C231.499 241.617 222.024 245.648 212 249C211.67 248.34 211.34 247.68 211 247C211.33 246.01 211.66 245.02 212 244C213.934 243.156 213.934 243.156 216.438 242.5C217.339 242.251 218.24 242.002 219.168 241.746C220.103 241.5 221.037 241.254 222 241C228.058 239.382 232.981 237.83 238 234Z" fill="white"/>
<path d="M645 289C645.66 289.33 646.32 289.66 647 290C639.488 297.211 631.689 303.281 623 309C622.447 306.924 622 305.156 622 303C622.822 302.576 623.645 302.152 624.492 301.715C631.709 297.923 638.439 293.873 645 289Z" fill="white"/>
<path d="M81 190C81.66 190.33 82.32 190.66 83 191C82.7554 192.882 82.7554 192.882 82 195C80.2251 196.077 80.2251 196.077 77.9141 196.895C77.0702 197.207 76.2264 197.52 75.3569 197.842C74.4554 198.162 73.5539 198.483 72.625 198.812C65.3987 201.51 59.1752 204.323 52.8984 208.848C52.272 209.228 51.6455 209.608 51 210C50.34 209.67 49.68 209.34 49 209C58.9093 201.577 69.1942 194.12 81 190Z" fill="white"/>
<path d="M722 187C723.65 187 725.3 187 727 187C728.158 191.053 727.967 193.263 726 197C724.625 198.875 724.625 198.875 723 200C720.813 199.688 720.813 199.688 719 199C718.652 194.123 719.583 191.229 722 187Z" fill="white"/>
<path d="M110 183C114 182.971 118 182.953 122 182.938C123.125 182.929 124.251 182.921 125.41 182.912C131.353 182.895 137.15 182.882 143 184C143.495 184.99 143.495 184.99 144 186C139.833 186.029 135.667 186.047 131.5 186.063C129.74 186.075 129.74 186.075 127.945 186.088C121.862 186.105 116.012 185.945 110 185C110 184.34 110 183.68 110 183Z" fill="white"/>
<path d="M599 15C610.723 18.6581 622.771 23.381 631 33C631 33.66 631 34.32 631 35C626.554 34.1284 623.829 31.5978 620.438 28.75C613.789 23.3304 607.158 19.7195 599 17C599 16.34 599 15.68 599 15Z" fill="white"/>
<path d="M189 246C189.33 247.32 189.66 248.64 190 250C189.252 250.496 188.504 250.993 187.734 251.504C178.751 257.7 175.245 262.335 173 273C172.67 273 172.34 273 172 273C171.34 265.874 172.9 260.891 177 255C185.493 246 185.493 246 189 246Z" fill="white"/>
<path d="M694.438 231C695.211 231.495 695.211 231.495 696 232C696 233.98 696 235.96 696 238C695.092 237.67 694.185 237.34 693.25 237C687.938 235.445 682.48 235.838 677 236C682.179 230.724 686.884 227.901 694.438 231Z" fill="white"/>
<path d="M642 22C642.33 22 642.66 22 643 22C643.086 22.5685 643.173 23.137 643.262 23.7227C643.402 24.4948 643.543 25.267 643.687 26.0625C643.815 26.8166 643.943 27.5707 644.074 28.3477C646.59 35.5556 651.502 39.5181 657.812 43.4375C658.505 43.8829 659.198 44.3282 659.912 44.7871C661.6 45.87 663.299 46.9367 665 48C661.291 49.1167 661.291 49.1167 658.668 48.0664C651.702 43.8429 645.116 38.8044 642 31C641.805 28.6406 641.805 28.6406 641.875 26.25C641.893 25.4508 641.911 24.6516 641.93 23.8281C641.953 23.2248 641.976 22.6216 642 22Z" fill="white"/>
<path d="M582.441 34.0508C585.943 34.9849 588.832 36.2576 592 38C588.793 39.0676 587.218 38.9399 584.129 37.6367C577.874 35.3843 571.527 35.1943 564.938 34.8125C563.69 34.7306 562.443 34.6488 561.158 34.5644C558.106 34.3656 555.054 34.1778 552 34C559.907 28.7285 573.568 32.3618 582.441 34.0508Z" fill="white"/>
<path d="M708 326C712.401 326.503 714.942 327.772 718 331C718.812 334.75 718.812 334.75 719 338C715.532 337.703 714.015 337.012 711.25 334.812C708.785 331.732 708.271 329.884 708 326Z" fill="white"/>
<path d="M349 332C350.974 336.978 348.295 341.127 346.398 345.785C342.16 355.529 342.16 355.529 339 356.812C338.34 356.874 337.68 356.936 337 357C335.654 357.641 334.319 358.305 333 359C333.364 358.539 333.727 358.077 334.102 357.602C340.246 349.63 345.175 341.314 349 332Z" fill="white"/>
<path d="M181 230C181 230.99 181 231.98 181 233C181.66 233.33 182.32 233.66 183 234C181.938 234.387 180.876 234.773 179.781 235.172C172.659 237.789 165.686 240.378 159 244C159 243.34 159 242.68 159 242C173.479 230 173.479 230 181 230Z" fill="white"/>
<path d="M165 168C170.409 167.801 175.127 168.467 180.375 169.75C181.119 169.928 181.862 170.105 182.629 170.288C188.075 171.642 192.986 173.447 198 176C197.67 176.99 197.34 177.98 197 179C192.329 177.511 187.762 175.923 183.25 174C177.348 171.58 171.231 170.289 165 169C165 168.67 165 168.34 165 168Z" fill="white"/>
<path d="M52 228C52.66 228.33 53.32 228.66 54 229C53.6579 231.91 53.4024 233.573 51.3633 235.738C50.6865 236.258 50.0098 236.777 49.3125 237.312C45.683 240.285 43.003 243.365 40.3242 247.203C39.0122 248.983 37.6009 250.479 36 252C37.3498 247.214 39.4515 243.452 42.3125 239.438C42.88 238.611 42.88 238.611 43.459 237.768C46.0206 234.114 48.7821 231.058 52 228Z" fill="white"/>
<path d="M226 245C226.99 245.66 227.98 246.32 229 247C228.033 247.219 227.066 247.438 226.07 247.664C218.598 249.452 212.376 251.415 205.953 255.828C204 257 204 257 201 257C217.6 242.2 217.6 242.2 226 245Z" fill="white"/>
<path d="M709 310C713.784 310.698 717.215 311.403 721.125 314.375C723 317 723 317 722.812 319.312C722.544 319.869 722.276 320.426 722 321C721.34 321 720.68 321 720 321C719.67 320.34 719.34 319.68 719 319C718.34 319.66 717.68 320.32 717 321C716.041 319.73 715.083 318.459 714.125 317.188C713.591 316.48 713.058 315.772 712.508 315.043C711.292 313.395 710.136 311.704 709 310Z" fill="white"/>
<path d="M117 275C117.33 275 117.66 275 118 275C118.014 275.69 118.029 276.379 118.043 277.09C118.394 284.001 119.427 289.616 124 295C128.55 298.502 133.231 300.556 139 301C139 301.33 139 301.66 139 302C132.695 302.45 128.139 301.881 123 298C119.068 294.193 117.178 290.786 116.633 285.301C116.626 281.845 116.736 278.445 117 275Z" fill="white"/>
<path d="M698 262C702.567 262.701 706.57 264.313 710.812 266.062C711.505 266.344 712.198 266.626 712.912 266.916C714.61 267.607 716.305 268.303 718 269C717.67 270.98 717.34 272.96 717 275C716.466 274.625 715.933 274.25 715.383 273.863C709.81 270.035 704.112 266.884 698 264C698 263.34 698 262.68 698 262Z" fill="white"/>
<path d="M174 225C179.61 225 185.22 225 191 225C187.801 227.133 184.509 228.66 181 230.188C180.371 230.473 179.742 230.759 179.094 231.053C174.352 233.117 174.352 233.117 171 232C171.66 232 172.32 232 173 232C173 231.34 173 230.68 173 230C174.5 228.375 174.5 228.375 176 227C175.34 226.34 174.68 225.68 174 225Z" fill="white"/>
<path d="M262 364C262.66 364 263.32 364 264 364C264 364.66 264 365.32 264 366C261.42 367.485 258.836 368.963 256.25 370.438C255.52 370.858 254.791 371.279 254.039 371.713C253.33 372.116 252.621 372.519 251.891 372.934C251.241 373.305 250.592 373.677 249.923 374.06C247.962 375.019 246.13 375.55 244 376C243.67 375.01 243.34 374.02 243 373C242.34 372.67 241.68 372.34 241 372C242.072 371.773 243.145 371.546 244.25 371.312C253.835 368.994 253.835 368.994 262 364Z" fill="white"/>
<path d="M163 226C163.33 226.99 163.66 227.98 164 229C163.105 229.401 162.211 229.802 161.289 230.215C153.864 233.663 147.914 237.296 141.988 243.082C140 245 140 245 137 247C140.499 239.41 147.048 235.091 153.812 230.562C154.483 230.113 155.154 229.664 155.844 229.201C160.737 226 160.737 226 163 226Z" fill="white"/>
<path d="M613 260C614 262 614 262 613.875 264.375C612.694 267.919 611.115 268.993 608 271C603.86 272.762 600.482 273.213 596 273C597 271 597 271 599.074 270.176C599.937 269.891 600.799 269.606 601.688 269.312C606.984 267.314 609.818 264.604 613 260Z" fill="white"/>
<path d="M143 259C143.33 259.66 143.66 260.32 144 261C143.526 262.011 143.052 263.021 142.563 264.062C140.294 269.125 140.123 273.875 141.621 279.211C143.735 284.266 146.397 286.292 151.391 288.406C151.922 288.602 152.453 288.798 153 289C153 289.33 153 289.66 153 290C149.942 290.283 148.414 290.268 145.797 288.574C145.122 287.952 144.446 287.329 143.75 286.688C143.065 286.073 142.379 285.458 141.672 284.824C137.814 280.615 138.683 274.853 138.7 269.477C139.094 264.916 140.26 262.596 143 259Z" fill="white"/>
<path d="M111 258C111 261.22 110.105 263.139 108.785 266.023C107.956 268.11 107.506 270.114 107.062 272.312C106 276 106 276 103.875 277.5C102.947 277.748 102.947 277.748 102 278C102.486 270.546 105.356 263.082 111 258Z" fill="white"/>
<path d="M28 237C28.33 237.66 28.66 238.32 29 239C29.99 239.33 30.98 239.66 32 240C31.1132 240.949 30.2263 241.897 29.3125 242.875C25.6235 247.142 23.3222 251.893 21 257C20.2118 254.705 19.8645 253.42 20.6209 251.077C20.9613 250.428 21.3017 249.778 21.6524 249.109C22.0165 248.4 22.3807 247.691 22.7559 246.961C23.1458 246.231 23.5358 245.502 23.9375 244.75C24.3236 244.005 24.7097 243.26 25.1075 242.492C26.0609 240.656 27.0291 238.827 28 237Z" fill="white"/>
<path d="M219 421C219.33 421 219.66 421 220 421C220.473 428.886 220.18 434.208 216 441C215.67 441 215.34 441 215 441C215.35 433.758 216.056 427.656 219 421Z" fill="white"/>
<path d="M203 245C202.481 245.387 201.961 245.773 201.426 246.172C197.566 249.054 193.74 251.961 190 255C189.01 253.68 188.02 252.36 187 251C188.602 250.017 190.207 249.039 191.812 248.062C192.706 247.517 193.599 246.972 194.52 246.41C199.218 243.739 199.218 243.739 203 245Z" fill="white"/>
<path d="M690 192C697.345 195.673 700.64 202.763 704 210C703.34 210.33 702.68 210.66 702 211C701.529 210.18 701.059 209.36 700.574 208.516C699.952 207.438 699.329 206.36 698.688 205.25C697.765 203.649 697.765 203.649 696.824 202.016C694.921 198.757 694.921 198.757 692 195C691.67 198.96 691.34 202.92 691 207C690.67 207 690.34 207 690 207C690 202.05 690 197.1 690 192Z" fill="white"/>
<path d="M580 21C590.878 21.8058 599.647 26.6657 609 32C609 32.66 609 33.32 609 34C605.424 33.0166 602.581 31.7876 599.562 29.6875C593.643 25.7952 586.718 24.0556 580 22C580 21.67 580 21.34 580 21Z" fill="white"/>
<path d="M148 426C153.94 426.99 153.94 426.99 160 428C160 428.66 160 429.32 160 430C157.044 431.478 154.258 431.06 151 431C150.34 432.32 149.68 433.64 149 435C147.522 432.043 147.94 429.258 148 426Z" fill="white"/>
<path d="M125 206C125 206.66 125 207.32 125 208C126.65 208 128.3 208 130 208C130 208.33 130 208.66 130 209C128.316 209.29 128.316 209.29 126.598 209.586C119.024 210.9 111.483 212.231 104 214C107.11 210.531 110.702 209.589 115.062 208.312C115.795 208.088 116.528 207.863 117.283 207.631C122.681 206 122.681 206 125 206Z" fill="white"/>
<path d="M678 172C685.827 179.404 685.827 179.404 686.188 184.812C686.126 185.534 686.064 186.256 686 187C682.075 183.299 679.054 179.45 676 175C676.66 175 677.32 175 678 175C678 174.01 678 173.02 678 172Z" fill="white"/>
<path d="M485 71C485 71.99 485 72.98 485 74C476.58 77.3312 469.147 79.7946 460 80C463.062 76.9381 467.131 76.5684 471.238 75.5879C475.739 74.465 480.529 71 485 71Z" fill="white"/>
<path d="M226 196C230.88 199.942 235.058 204.12 239 209C238.67 209.66 238.34 210.32 238 211C236.415 209.585 234.832 208.168 233.25 206.75C232.368 205.961 231.487 205.172 230.578 204.359C228.321 202.294 226.143 200.183 224 198C224.66 198 225.32 198 226 198C226 197.34 226 196.68 226 196Z" fill="white"/>
<path d="M187 379C187.66 379.33 188.32 379.66 189 380C187.91 382.008 186.802 384.006 185.688 386C184.765 387.671 184.765 387.671 183.824 389.375C183.222 390.241 182.62 391.108 182 392C181.01 392 180.02 392 179 392C179.658 390.33 180.327 388.664 181 387C181.229 386.388 181.459 385.775 181.695 385.145C182.381 383.395 183.186 381.694 184 380C184.99 379.67 185.98 379.34 187 379Z" fill="white"/>
<path d="M238 234C238.99 234.99 239.98 235.98 241 237C236.05 239.31 231.1 241.62 226 244C225.67 243.34 225.34 242.68 225 242C224.01 241.67 223.02 241.34 222 241C222.978 240.745 222.978 240.745 223.977 240.484C229.367 238.99 233.548 237.398 238 234Z" fill="white"/>
<path d="M531.812 52.9376C532.505 52.9421 533.198 52.9466 533.912 52.9513C535.608 52.963 537.304 52.9809 539 53.0001C539 53.6601 539 54.3201 539 55.0001C532.628 57.124 525.526 56.1351 519 55.0001C519 54.6701 519 54.3401 519 54.0001C523.283 52.9439 527.43 52.8831 531.812 52.9376Z" fill="white"/>
<path d="M713 254C714.441 254.426 715.878 254.866 717.312 255.312C718.113 255.556 718.914 255.8 719.738 256.051C722.128 257.054 723.396 257.981 725 260C725 260.66 725 261.32 725 262C719.06 260.515 719.06 260.515 713 259C713 257.333 713 255.667 713 254Z" fill="white"/>
<path d="M69 215C69.33 215.66 69.66 216.32 70 217C69.4431 217.291 68.8863 217.583 68.3125 217.883C62.8252 220.83 57.8789 224.131 53 228C53 227.01 53 226.02 53 225C52.34 224.67 51.68 224.34 51 224C57 221 63 218 69 215Z" fill="white"/>
<path d="M638 275C638.66 276.32 639.32 277.64 640 279C637.379 280.197 634.754 281.383 632.125 282.562C631.379 282.905 630.632 283.247 629.863 283.6C627.935 284.46 625.969 285.236 624 286C623.34 285.67 622.68 285.34 622 285C629.92 280.05 629.92 280.05 638 275Z" fill="white"/>
<path d="M717 116C717.33 116 717.66 116 718 116C717.67 121.94 717.34 127.88 717 134C716.34 134.33 715.68 134.66 715 135C714.856 134.092 714.712 133.185 714.563 132.25C714.122 129.189 714.122 129.189 713.344 127.094C712.88 124.269 713.7 122.801 714.938 120.25C715.318 119.451 715.699 118.652 716.09 117.828C716.391 117.225 716.691 116.622 717 116Z" fill="white"/>
<path d="M500 64C500 64.66 500 65.32 500 66C497.878 67.1718 495.752 68.3375 493.625 69.5C493.022 69.8339 492.418 70.1677 491.797 70.5117C487.227 73 487.227 73 485 73C485 72.01 485 71.02 485 70C486.413 69.1816 487.831 68.3705 489.25 67.5625C490.433 66.8838 490.433 66.8838 491.641 66.1914C494.467 64.7641 496.834 64 500 64Z" fill="white"/>
<path d="M146.5 423.25C147.737 423.621 147.737 423.621 149 424C149.763 424.186 150.526 424.371 151.312 424.562C152.148 424.779 152.148 424.779 153 425C153 425.66 153 426.32 153 427C152.42 426.965 151.84 426.93 151.242 426.895C145.991 426.713 142.605 427.166 138 430C139.695 425.904 141.717 422.772 146.5 423.25Z" fill="white"/>
<path d="M201 190C206.436 192.783 210.933 195.408 215 200C209.315 198.354 204.233 195.71 199 193C199.66 192.01 200.32 191.02 201 190Z" fill="white"/>
<path d="M188 371C191 371 191 371 194 372C191.622 376.845 191.622 376.845 190 379C187.25 379.938 187.25 379.938 185 380C185.99 377.03 186.98 374.06 188 371Z" fill="white"/>
<path d="M516 245C520.637 248.275 524.685 251.304 528 256C526.68 256.99 525.36 257.98 524 259C523.674 258.385 523.348 257.77 523.012 257.137C522.575 256.328 522.138 255.52 521.688 254.688C521.258 253.887 520.829 253.086 520.387 252.262C519.107 249.977 519.107 249.977 517.332 248.332C516.892 247.892 516.453 247.453 516 247C516 246.34 516 245.68 516 245Z" fill="white"/>
<path d="M340 229C340.33 229.66 340.66 230.32 341 231C338.771 231.48 336.542 231.959 334.312 232.438C333.071 232.704 331.83 232.971 330.551 233.246C327.704 233.851 324.855 234.438 322 235C324.456 232.122 326.909 231.033 330.438 229.75C331.385 229.394 332.332 229.038 333.309 228.672C336.072 227.982 337.402 227.888 340 229Z" fill="white"/>
<path d="M718 153C719.901 155.851 720.963 158.297 722.125 161.5C722.478 162.459 722.831 163.418 723.195 164.406C724 167 724 167 724 170C723.01 169.67 722.02 169.34 721 169C721.33 168.01 721.66 167.02 722 166C721.01 165.67 720.02 165.34 719 165C718.234 163.039 718.234 163.039 717.75 160.625C717.58 159.834 717.41 159.042 717.234 158.227C717 156 717 156 718 153Z" fill="white"/>
<path d="M599 15C605.914 17.1575 612.519 19.7597 619 23C619 23.66 619 24.32 619 25C614.824 24.3836 611.607 22.9456 607.875 21C604.909 19.4617 602.17 18.0568 599 17C599 16.34 599 15.68 599 15Z" fill="white"/>
<path d="M219 181C223.217 182.486 226.625 184.612 230.312 187.125C231.381 187.849 232.45 188.574 233.551 189.32C234.763 190.152 234.763 190.152 236 191C235.67 191.99 235.34 192.98 235 194C233.104 192.578 231.207 191.155 229.312 189.73C227.776 188.581 226.234 187.437 224.688 186.301C223.966 185.768 223.244 185.236 222.5 184.688C221.83 184.196 221.159 183.705 220.469 183.199C219.984 182.803 219.499 182.408 219 182C219 181.67 219 181.34 219 181Z" fill="white"/>
<path d="M484 158C478.58 160.858 473.04 163.725 467 165C466.01 164.67 465.02 164.34 464 164C466.578 162.798 469.161 161.614 471.75 160.438C472.48 160.095 473.209 159.753 473.961 159.401C474.67 159.081 475.379 158.762 476.109 158.434C476.759 158.135 477.408 157.837 478.077 157.529C480.395 156.891 481.749 157.245 484 158Z" fill="white"/>
<path d="M495 150C495 151.32 495 152.64 495 154C493.593 154.728 492.174 155.431 490.75 156.125C489.961 156.519 489.172 156.914 488.359 157.32C486 158 486 158 483.703 157.117C483.141 156.749 482.579 156.38 482 156C483.789 154.995 485.581 153.996 487.375 153C488.373 152.443 489.37 151.886 490.398 151.312C493 150 493 150 495 150Z" fill="white"/>
<path d="M240 279C241.32 279.33 242.64 279.66 244 280C244.393 284.449 243.153 287.142 241 291C240.67 291 240.34 291 240 291C240 287.04 240 283.08 240 279Z" fill="white"/>
<path d="M67 224C67.66 224.33 68.32 224.66 69 225C68.5295 225.398 68.059 225.797 67.5742 226.207C66.9516 226.737 66.329 227.267 65.6875 227.812C65.0726 228.335 64.4577 228.857 63.8242 229.395C62.1458 230.872 60.5612 232.4 59 234C58.34 232.68 57.68 231.36 57 230C58.6189 228.97 60.2453 227.951 61.875 226.938C62.7799 226.369 63.6848 225.801 64.6172 225.215C65.7967 224.613 65.7967 224.613 67 224Z" fill="white"/>
<path d="M173.688 223.937C175.457 223.951 175.457 223.951 177.262 223.965C178.165 223.976 179.069 223.988 180 224C180 224.33 180 224.66 180 225C177.918 225.505 175.834 226.004 173.75 226.5C172.59 226.778 171.43 227.057 170.234 227.344C167 228 167 228 163 228C163.33 227.01 163.66 226.02 164 225C167.422 223.859 170.087 223.902 173.688 223.937Z" fill="white"/>
<path d="M645 289C645.66 289.33 646.32 289.66 647 290C643.37 293.3 639.74 296.6 636 300C635.67 299.34 635.34 298.68 635 298C634.34 297.67 633.68 297.34 633 297C633.782 296.506 634.565 296.013 635.371 295.504C636.383 294.863 637.395 294.223 638.438 293.562C639.447 292.924 640.456 292.286 641.496 291.629C643.846 290.224 643.846 290.224 645 289Z" fill="white"/>
<path d="M112 308C115.436 309.527 118.119 311.599 121 314C116.781 314.196 113.83 313.802 110 312C110.66 310.68 111.32 309.36 112 308Z" fill="white"/>
<path d="M195 438C195.99 438.66 196.98 439.32 198 440C198.375 442.5 198.375 442.5 198 445C194.565 447.29 193.015 447.178 189 447C188.67 446.34 188.34 445.68 188 445C190.31 444.34 192.62 443.68 195 443C195 441.35 195 439.7 195 438Z" fill="white"/>
<path d="M256.109 384.121C256.863 384.17 257.618 384.218 258.395 384.268C259.56 384.352 259.56 384.352 260.75 384.438C261.939 384.516 261.939 384.516 263.152 384.596C265.102 384.725 267.051 384.862 269 385C269 385.33 269 385.66 269 386C258.605 386.495 258.605 386.495 248 387C248 386.34 248 385.68 248 385C250.834 384.175 253.169 383.921 256.109 384.121Z" fill="white"/>
<path d="M123 295C123.978 295.524 123.978 295.524 124.977 296.059C129.637 298.485 133.671 300.579 139 301C139 301.33 139 301.66 139 302C132.497 302.465 128.583 301.326 123 298C123 297.01 123 296.02 123 295Z" fill="white"/>
<path d="M59 246C60 248 60 248 59.4414 250.164C59.1514 250.976 58.8613 251.788 58.5625 252.625C58.275 253.442 57.9876 254.26 57.6914 255.102C57.3492 256.041 57.3492 256.041 57 257C55.68 256.67 54.36 256.34 53 256C54.3697 252.005 56.2572 249.2 59 246Z" fill="white"/>
<path d="M197 392C197.33 392.66 197.66 393.32 198 394C196.785 396.82 196.785 396.82 195.062 400.125C194.497 401.221 193.931 402.316 193.348 403.445C192.903 404.288 192.458 405.131 192 406C191.01 406 190.02 406 189 406C190.326 402.377 191.943 399.365 194.125 396.188C194.664 395.397 195.203 394.607 195.758 393.793C196.168 393.201 196.578 392.61 197 392Z" fill="white"/>
<path d="M43 238C43.99 238 44.98 238 46 238C44.4516 241.347 42.5089 244.247 40.375 247.25C39.7434 248.142 39.1117 249.034 38.4609 249.953C37.9788 250.629 37.4967 251.304 37 252C36.67 251.34 36.34 250.68 36 250C37.3281 247.18 37.3281 247.18 39.25 243.875C39.8739 242.779 40.4978 241.684 41.1406 240.555C41.7542 239.712 42.3678 238.869 43 238Z" fill="white"/>
<path d="M174 179C176.31 179.33 178.62 179.66 181 180C181 181.32 181 182.64 181 184C178.03 183.505 178.03 183.505 175 183C174.67 181.68 174.34 180.36 174 179Z" fill="white"/>
<path d="M607 268C607.33 268.99 607.66 269.98 608 271C603.823 272.591 600.468 273.213 596 273C597.29 270.42 598.271 270.33 600.938 269.375C601.648 269.115 602.358 268.854 603.09 268.586C605 268 605 268 607 268Z" fill="white"/>
<path d="M527.438 45.8126C527.953 46.2045 528.469 46.5964 529 47.0001C529 47.3301 529 47.6601 529 48.0001C522.07 49.4851 522.07 49.4851 515 51.0001C518.437 47.5631 522.395 44.1318 527.438 45.8126Z" fill="white"/>
<path d="M349 332C350.188 335.429 349.802 337.378 348.562 340.75C348.275 341.549 347.988 342.348 347.691 343.172C347.463 343.775 347.235 344.378 347 345C346.01 345 345.02 345 344 345C345.418 340.528 347.113 336.289 349 332Z" fill="white"/>
<path d="M203 245C198.545 247.97 198.545 247.97 194 251C194 250.34 194 249.68 194 249C193.34 248.67 192.68 248.34 192 248C193.264 247.301 194.537 246.616 195.812 245.938C196.52 245.555 197.228 245.172 197.957 244.778C200 244 200 244 203 245Z" fill="white"/>
<path d="M187 246C187.66 246 188.32 246 189 246C189.33 247.32 189.66 248.64 190 250C187.69 251.32 185.38 252.64 183 254C183 250.068 184.394 248.836 187 246Z" fill="white"/>
<path d="M676 235C676.99 235.66 677.98 236.32 679 237C678.67 237.99 678.34 238.98 678 240C675.69 240.33 673.38 240.66 671 241C672.37 237.839 672.989 237.007 676 235Z" fill="white"/>
<path d="M717 102C724.159 105.341 724.159 105.341 726 108C726.188 110.688 726.188 110.688 726 113C725.598 112.041 725.598 112.041 725.188 111.062C724.113 108.669 724.113 108.669 721 108C721 107.34 721 106.68 721 106C720.01 106 719.02 106 718 106C717.67 104.68 717.34 103.36 717 102Z" fill="white"/>
<path d="M692 311C695.558 311.61 698.683 312.578 702 314C701.34 315.32 700.68 316.64 700 318C698.664 317.025 697.331 316.045 696 315.062C695.257 314.517 694.515 313.972 693.75 313.41C693.173 312.945 692.595 312.479 692 312C692 311.67 692 311.34 692 311Z" fill="white"/>
<path d="M118 305C118.66 305.289 119.32 305.577 120 305.875C123.625 307.234 127.233 308.106 131 309C131 309.33 131 309.66 131 310C125.78 310.18 121.927 309.971 117 308C117.33 307.01 117.66 306.02 118 305Z" fill="white"/>
<path d="M185 252C185.66 252.33 186.32 252.66 187 253C183.7 256.3 180.4 259.6 177 263C177 259.023 178.38 257.911 181 255C183.25 253.188 183.25 253.188 185 252Z" fill="white"/>
<path d="M117 237C117.99 237.33 118.98 237.66 120 238C116.7 240.64 113.4 243.28 110 246C109.01 245.34 108.02 244.68 107 244C108.595 242.8 110.201 241.615 111.812 240.438C113.152 239.446 113.152 239.446 114.52 238.434C115.338 237.961 116.157 237.487 117 237Z" fill="white"/>
<path d="M680 157C682.97 157.33 685.94 157.66 689 158C687.68 159.65 686.36 161.3 685 163C683.35 161.02 681.7 159.04 680 157Z" fill="white"/>
<path d="M177 399C177.33 399.66 177.66 400.32 178 401C178.99 401 179.98 401 181 401C180.25 402.938 180.25 402.938 179 405C176.875 405.75 176.875 405.75 175 406C175.875 401.25 175.875 401.25 177 399Z" fill="white"/>
<path d="M94 296C96.745 299.612 99.3701 303.304 102 307C101.34 307 100.68 307 100 307C99.67 307.66 99.34 308.32 99 309C98.1593 307.4 97.3277 305.795 96.5 304.188C95.8039 302.848 95.8039 302.848 95.0938 301.48C94 299 94 299 94 296Z" fill="white"/>
<path d="M683 257C680.378 259.154 678.356 260.401 675 261C675 260.34 675 259.68 675 259C674.01 259.33 673.02 259.66 672 260C671.67 259.34 671.34 258.68 671 258C674.981 256.673 678.85 256.931 683 257Z" fill="white"/>
<path d="M113 220C106.846 224.061 106.846 224.061 102.562 223.75C101.717 223.502 100.871 223.255 100 223C104.166 220.223 108.064 218.101 113 220Z" fill="white"/>
<path d="M194 187C196.438 187.25 196.438 187.25 199 188C199.66 188.99 200.32 189.98 201 191C199.25 191.75 199.25 191.75 197 192C194.75 190.062 194.75 190.062 193 188C193.33 187.67 193.66 187.34 194 187Z" fill="white"/>
<path d="M264 364C264 364.66 264 365.32 264 366C262.391 367.359 262.391 367.359 260.25 368.75C259.554 369.219 258.858 369.688 258.141 370.172C256 371 256 371 253.734 370.141C253.162 369.764 252.59 369.388 252 369C253.622 368.162 255.248 367.33 256.875 366.5C257.78 366.036 258.685 365.572 259.617 365.094C262 364 262 364 264 364Z" fill="white"/>
<path d="M80.9996 257C81.9175 260.03 82.0431 262.423 81.6871 265.562C81.6085 266.327 81.5299 267.091 81.4489 267.879C80.9996 270 80.9996 270 78.9996 273C78.7929 267.211 79.408 262.571 80.9996 257Z" fill="white"/>
<path d="M502 148C501.34 148.66 500.68 149.32 500 150C499.319 150.835 499.319 150.835 498.625 151.688C498.089 152.121 497.553 152.554 497 153C494.812 152.688 494.812 152.688 493 152C493.66 152 494.32 152 495 152C495 151.01 495 150.02 495 149C498.625 146.875 498.625 146.875 502 148Z" fill="white"/>
<path d="M200 436C200 437.98 200 439.96 200 442C199.34 442 198.68 442 198 442C196.611 440.039 195.274 438.038 194 436C197 435 197 435 200 436Z" fill="white"/>
<path d="M198 247C198.66 247.33 199.32 247.66 200 248C200 248.66 200 249.32 200 250C198.25 251.508 198.25 251.508 196 253.125C195.257 253.664 194.515 254.203 193.75 254.758C193.173 255.168 192.595 255.578 192 256C191.34 255.67 190.68 255.34 190 255C192.64 252.36 195.28 249.72 198 247Z" fill="white"/>
<path d="M134 205C133.67 205.99 133.34 206.98 133 208C130.36 208 127.72 208 125 208C125 207.34 125 206.68 125 206C128.196 204.934 130.657 204.926 134 205Z" fill="white"/>
<path d="M474 76.9998C470.715 79.1897 469.169 79.3526 465.312 79.6248C463.822 79.737 463.822 79.737 462.301 79.8514C461.162 79.9248 461.162 79.9248 460 79.9998C462.13 77.8701 463.041 77.5236 465.875 76.8123C466.553 76.6331 467.231 76.4539 467.93 76.2693C470.228 75.9701 471.806 76.306 474 76.9998Z" fill="white"/>
<path d="M182 384C182.66 384.66 183.32 385.32 184 386C183.625 388.625 183.625 388.625 183 391C181.68 391.33 180.36 391.66 179 392C179.309 391.237 179.619 390.474 179.938 389.688C180.679 387.812 181.362 385.913 182 384Z" fill="white"/>
<path d="M669 317C672.96 317 676.92 317 681 317C675.667 319.667 675.667 319.667 673 320C670.75 319.062 670.75 319.062 669 318C669 317.67 669 317.34 669 317Z" fill="white"/>
<path d="M698 262C701.806 262.672 705.352 263.727 709 265C707.438 266.188 707.438 266.188 705 267C701.25 265.625 701.25 265.625 698 264C698 263.34 698 262.68 698 262Z" fill="white"/>
<path d="M60 224C60.99 224.99 61.98 225.98 63 227C60.69 228.32 58.38 229.64 56 231C56.5637 227.73 57.4996 226.174 60 224Z" fill="white"/>
<path d="M657 215C658.98 215.99 658.98 215.99 661 217C660.34 218.65 659.68 220.3 659 222C658.34 222 657.68 222 657 222C657 219.69 657 217.38 657 215Z" fill="white"/>
<path d="M716 124C716.33 127.3 716.66 130.6 717 134C716.01 134.495 716.01 134.495 715 135C714.783 133.639 714.783 133.639 714.562 132.25C714.136 129.785 713.649 127.412 713 125C715 124 715 124 716 124Z" fill="white"/>
<path d="M709 310C710.461 310.256 711.919 310.53 713.375 310.812C714.593 311.039 714.593 311.039 715.836 311.27C718 312 718 312 720 315C715.872 314.393 712.668 312.962 709 311C709 310.67 709 310.34 709 310Z" fill="white"/>
<path d="M680 292C684.677 293.477 684.677 293.477 686.312 296.125C686.539 296.744 686.766 297.363 687 298C687.66 298 688.32 298 689 298C688.67 298.66 688.34 299.32 688 300C686.664 298.858 685.331 297.711 684 296.562C683.257 295.924 682.515 295.286 681.75 294.629C681.173 294.091 680.595 293.554 680 293C680 292.67 680 292.34 680 292Z" fill="white"/>
<path d="M716 265C718.038 266.274 720.039 267.611 722 269C722 269.66 722 270.32 722 271C719.03 270.01 716.06 269.02 713 268C713.99 267.67 714.98 267.34 716 267C716 266.34 716 265.68 716 265Z" fill="white"/>
<path d="M247 205C248.875 205.625 248.875 205.625 251 207C252.25 210.125 252.25 210.125 253 213C248.312 209.387 248.312 209.387 247 208C247 207.01 247 206.02 247 205Z" fill="white"/>
<path d="M59 204C59.99 204.33 60.98 204.66 62 205C60.6875 207.5 60.6875 207.5 59 210C58.01 210 57.02 210 56 210C57.875 205.125 57.875 205.125 59 204Z" fill="white"/>
<path d="M159 410C160.32 410 161.64 410 163 410C163.33 411.32 163.66 412.64 164 414C163.01 414.66 162.02 415.32 161 416C160.34 414.02 159.68 412.04 159 410Z" fill="white"/>
<path d="M229 364C228.67 365.32 228.34 366.64 228 368C226.35 368.33 224.7 368.66 223 369C223 367.68 223 366.36 223 365C226 364 226 364 229 364Z" fill="white"/>
<path d="M83.0001 256C83.6601 256 84.3201 256 85.0001 256C84.4428 259.344 83.6484 262.033 82.0001 265C80.9674 262.212 80.955 261.132 81.9376 258.25C82.2883 257.507 82.6389 256.765 83.0001 256Z" fill="white"/>
<path d="M109 245C108 248 108 248 104.938 249.688C103.968 250.121 102.999 250.554 102 251C102 250.01 102 249.02 102 248C104.532 245.643 105.472 245 109 245Z" fill="white"/>
<path d="M48 209C49.98 209.66 51.96 210.32 54 211C54 211.66 54 212.32 54 213C53.01 213.33 52.02 213.66 51 214C50.01 213.34 49.02 212.68 48 212C47.34 211.67 46.68 211.34 46 211C46.66 210.34 47.32 209.68 48 209Z" fill="white"/>
<path d="M722 187C723.65 187 725.3 187 727 187C727.33 187.99 727.66 188.98 728 190C724.867 191.044 724.01 190.934 721 190C721.33 189.01 721.66 188.02 722 187Z" fill="white"/>
<path d="M183 172C185.875 171.875 185.875 171.875 189 172C189.66 172.66 190.32 173.32 191 174C190.67 174.66 190.34 175.32 190 176C187.98 175.398 185.979 174.727 184 174C183.67 173.34 183.34 172.68 183 172Z" fill="white"/>
<path d="M695 98C695 101 695 101 692.625 103.688C690 106 690 106 688 106C689.491 102.205 691.757 100.39 695 98Z" fill="white"/>
<path d="M515 80C515.66 80.33 516.32 80.66 517 81C516.67 81.99 516.34 82.98 516 84C514.02 84.33 512.04 84.66 510 85C510 84.34 510 83.68 510 83C512.375 81.3125 512.375 81.3125 515 80Z" fill="white"/>
<path d="M216 429C216.33 429 216.66 429 217 429C217.25 430.434 217.474 431.873 217.688 433.312C217.879 434.513 217.879 434.513 218.074 435.738C218 438 218 438 215 441C215.33 437.04 215.66 433.08 216 429Z" fill="white"/>
<path d="M340 355C338.848 357.468 337.952 359.048 336 361C335.01 361 334.02 361 333 361C333 360.34 333 359.68 333 359C337.471 355 337.471 355 340 355Z" fill="white"/>
<path d="M718 315C719.32 315.33 720.64 315.66 722 316C722.33 317.65 722.66 319.3 723 321C722.01 321 721.02 321 720 321C719.34 319.02 718.68 317.04 718 315Z" fill="white"/>
<path d="M100 310C102.31 311.65 104.62 313.3 107 315C106.01 315.33 105.02 315.66 104 316C101.312 314.562 101.312 314.562 99 313C99.33 312.01 99.66 311.02 100 310Z" fill="white"/>
<path d="M112 306C115.375 306.547 117.082 307.055 120 309C119.34 309 118.68 309 118 309C118 309.66 118 310.32 118 311C114.839 309.63 114.007 309.011 112 306Z" fill="white"/>
<path d="M635 298C634.34 299.32 633.68 300.64 633 302C632.01 302 631.02 302 630 302C629.34 301.34 628.68 300.68 628 300C630.647 298.539 631.894 298 635 298Z" fill="white"/>
<path d="M559 288C561.116 290.576 562.673 292.625 563 296C562.01 297.485 562.01 297.485 561 299C559.807 295.123 559 292.084 559 288Z" fill="white"/>
<path d="M681 287C681.99 288.32 682.98 289.64 684 291C683.34 291.66 682.68 292.32 682 293C680.68 292.34 679.36 291.68 678 291C678 290.34 678 289.68 678 289C678.99 289 679.98 289 681 289C681 288.34 681 287.68 681 287Z" fill="white"/>
<path d="M630 280C630.99 280.66 631.98 281.32 633 282C631.546 282.697 630.087 283.382 628.625 284.062C627.813 284.445 627.001 284.828 626.164 285.223C625.45 285.479 624.736 285.736 624 286C623.34 285.67 622.68 285.34 622 285C625.96 282.525 625.96 282.525 630 280Z" fill="white"/>
<path d="M713 254C715.97 254.99 718.94 255.98 722 257C719 258 719 258 716 257C716 257.66 716 258.32 716 259C715.01 258.67 714.02 258.34 713 258C713 256.68 713 255.36 713 254Z" fill="white"/>
<path d="M83 190C84.32 190.33 85.64 190.66 87 191C87 191.66 87 192.32 87 193C85.02 193.33 83.04 193.66 81 194C81.66 192.68 82.32 191.36 83 190Z" fill="white"/>
<path d="M136 435C136.99 435.33 137.98 435.66 139 436C134.692 439.938 134.692 439.938 131.188 440.25C130.466 440.167 129.744 440.085 129 440C129.598 439.732 130.196 439.464 130.812 439.188C132.972 438.015 134.358 436.806 136 435Z" fill="white"/>
<path d="M199 368C199 369.65 199 371.3 199 373C195 373 195 373 193 372C196.75 368 196.75 368 199 368Z" fill="white"/>
<path d="M707 257C709.97 257.495 709.97 257.495 713 258C712.34 259.32 711.68 260.64 711 262C709 260.625 709 260.625 707 259C707 258.34 707 257.68 707 257Z" fill="white"/>
</g>
<defs>
<clipPath id="clip0_2012_4125">
<rect width="802" height="497" fill="white"/>
</clipPath>
</defs>
</svg>
